<svg width="74" height="73" viewBox="0 0 74 73" fill="none" xmlns="http://www.w3.org/2000/svg">
<g id="Dell_Logo 2" clip-path="url(#clip0_160_91)">
<g id="layer1">
<g id="g3460">
<path id="path3462" d="M36.5343 4.16303C27.6075 4.16303 19.5232 7.78391 13.6701 13.6415C7.8147 19.4857 4.19605 27.5745 4.19605 36.5057C4.19605 45.4303 7.8147 53.5135 13.6701 59.3599C19.5232 65.2097 27.6075 68.8373 36.5343 68.8373C45.4633 68.8373 53.5521 65.2097 59.3963 59.3599C65.2494 53.5135 68.8603 45.4303 68.8603 36.5057C68.8603 27.5745 65.2494 19.4857 59.3963 13.6415C53.5521 7.78391 45.4633 4.16303 36.5343 4.16303ZM36.5343 0.244598C56.5555 0.244598 72.7887 16.48 72.7887 36.5057C72.7887 56.5247 56.5555 72.7579 36.5343 72.7579C16.5153 72.7579 0.275391 56.5247 0.275391 36.5057C0.275391 16.48 16.5153 0.244598 36.5343 0.244598Z" fill="#C8C8C8"/>
</g>
<g id="g3464">
<path id="path3466" d="M19.3865 36.2091C19.3865 34.0961 17.9845 32.8958 15.9997 32.8958H14.7849V39.5246H15.9651C17.8107 39.5246 19.3865 38.5216 19.3865 36.2091ZM40.9947 38.594L32.0456 45.6407L23.8666 39.2014C22.6864 42.0366 19.8345 44.0058 16.5502 44.0058H9.55029V28.4123H16.5502C20.2201 28.4123 22.8647 30.746 23.8644 33.2324L32.0456 26.7997L35.0758 29.1847L27.5778 35.0779L29.0188 36.2057L36.5146 30.3158L39.5493 32.6941L32.0523 38.594L33.4911 39.7241L40.9947 33.823V28.4123H46.4344V39.4544H51.8607V44.0248H40.9947V38.594ZM58.7514 39.4566H64.1755V44.0248H53.3062V28.4123H58.7514V39.4566Z" fill="#C8C8C8"/>
</g>
</g>
</g>
<defs>
<clipPath id="clip0_160_91">
<rect width="73" height="73" fill="white" transform="translate(0.0322266 0.00012207)"/>
</clipPath>
</defs>
</svg>
