<svg width="174" height="63" viewBox="0 0 174 63" fill="none" xmlns="http://www.w3.org/2000/svg">
<g id="Genesys_(company)-Logo.wine 2">
<path id="path2793" d="M33.5011 19.4555C34.1665 19.4555 34.6988 19.9923 34.6988 20.6634C34.6988 21.3344 34.1665 21.8712 33.5011 21.8712H33.4346C32.8357 21.8712 32.3034 21.3344 32.3034 20.7305C32.3034 20.395 32.4365 20.0595 32.6361 19.8581C32.8357 19.5897 33.1684 19.4555 33.5011 19.4555ZM33.5011 17.9122C31.9707 17.9122 30.7065 19.2542 30.773 20.7976C30.8396 22.2067 31.9707 23.3474 33.368 23.4145H33.5011C35.0315 23.4145 36.2292 22.1396 36.2292 20.6634C36.2292 19.1871 34.9649 17.9122 33.5011 17.9122Z" fill="#FFEDE8"/>
<path id="path2795" d="M31.6376 37.3046C33.168 37.3046 34.4322 38.5795 34.4322 40.1228C34.4322 41.6661 33.168 42.941 31.6376 42.941H28.6434C27.113 42.941 25.8488 41.6661 25.8488 40.1228C25.8488 38.5795 27.113 37.3046 28.6434 37.3046H31.6376ZM31.6376 35.4258H28.6434C26.1149 35.4258 24.0522 37.5059 24.0522 40.0557C24.0522 42.6055 26.1149 44.6857 28.6434 44.6857H31.6376C34.1661 44.6857 36.2288 42.6055 36.2288 40.0557C36.2288 37.5059 34.1661 35.4258 31.6376 35.4258Z" fill="#FFEDE8"/>
<path id="path2797" d="M31.6379 26.4331C33.1683 26.4331 34.4325 27.708 34.4325 29.2513C34.4325 30.7946 33.1683 32.0695 31.6379 32.0695H24.5848C23.0544 32.0695 21.7902 30.7946 21.7902 29.2513C21.7902 27.708 23.0544 26.4331 24.5848 26.4331H31.6379ZM31.6379 24.6213H24.5848C22.0563 24.6213 19.9937 26.7015 19.9937 29.2513C19.9937 31.8011 22.0563 33.8812 24.5848 33.8812H31.6379C34.1663 33.8812 36.229 31.8011 36.229 29.2513C36.229 26.7015 34.1663 24.6213 31.6379 24.6213Z" fill="#FFEDE8"/>
<path id="path2799" d="M149.81 24.8899H149.145V24.6215H150.741V24.8899H150.076V26.6345H149.81V24.8899ZM151.939 26.6345L151.407 24.8899V26.6345H151.074V24.6215H151.54L152.072 26.299L152.605 24.6215H153.07V26.6345H152.804V24.8899L152.272 26.6345H151.939ZM71.9599 44.6845V42.6715H62.7776V35.4918H71.0284V33.5458H62.7776V26.6345H71.9599V24.6215H60.7814V44.6845H71.9599ZM104.963 44.6845V42.6715H95.7807V35.4918H104.031V33.5458H95.7807V26.6345H104.963V24.6215H93.7845V44.6845H104.963ZM129.25 44.6845V36.3641L135.97 24.6215H133.774L128.318 34.2169L122.795 24.6215H120.533L127.253 36.3641V44.6845H129.25ZM89.6591 44.6845V24.6215H87.663V40.994L77.8153 24.6215H75.8191V44.6845H77.8153V28.312L87.663 44.6845H89.6591ZM50.2684 36.0957H55.0591V37.7061C55.0591 41.665 52.5972 43.007 50.2684 43.007C47.9395 43.007 45.4776 41.5979 45.4776 37.7061V31.7341C45.4776 27.7752 47.9395 26.4332 50.2684 26.4332C52.7968 26.4332 54.5268 27.9765 54.9261 30.5263H56.9222C56.4564 26.8358 53.8614 24.4202 50.2684 24.4202C46.2095 24.4202 43.4814 27.3726 43.4814 31.7341V37.7732C43.4814 42.1347 46.2095 45.0871 50.2684 45.0871C54.3272 45.0871 57.0553 42.1347 57.0553 37.7732V34.2169H50.2684V36.0957ZM107.425 38.6455C107.491 41.5308 109.355 45.02 113.879 45.02C117.539 45.02 119.801 42.9399 119.801 39.5178C119.801 36.4312 117.738 34.7537 115.809 34.2169L112.349 33.2774C110.685 32.8077 109.754 31.5999 109.754 29.8553C109.754 27.7752 111.218 26.3661 113.48 26.3661C115.609 26.3661 117.073 27.5739 117.539 29.9224H119.535C119.136 27.1713 117.406 24.4202 113.48 24.4202C110.086 24.4202 107.758 26.6345 107.758 29.8553C107.758 32.5393 109.221 34.6195 111.683 35.2905L115.01 36.2299C116.74 36.6996 117.738 37.9074 117.738 39.5849C117.738 41.8663 116.341 43.0741 113.813 43.0741C111.284 43.0741 109.554 41.3966 109.355 38.7126L107.425 38.6455ZM136.835 38.6455C136.901 41.5308 138.765 45.02 143.289 45.02C146.949 45.02 149.211 42.9399 149.211 39.5178C149.211 36.4312 147.148 34.7537 145.219 34.2169L141.759 33.2774C140.095 32.8077 139.164 31.5999 139.164 29.8553C139.164 27.7752 140.628 26.3661 142.89 26.3661C145.019 26.3661 146.483 27.5739 146.949 29.9224H148.945C148.546 27.1713 146.816 24.4202 142.89 24.4202C139.496 24.4202 137.168 26.6345 137.168 29.8553C137.168 32.5393 138.631 34.6195 141.093 35.2905L144.42 36.2299C146.15 36.6996 147.148 37.9074 147.148 39.5849C147.148 41.8663 145.751 43.0741 143.223 43.0741C140.694 43.0741 138.964 41.3966 138.765 38.7126L136.835 38.6455Z" fill="#C8C8C8"/>
</g>
</svg>
