<svg width="153" height="59" viewBox="0 0 153 59" fill="none" xmlns="http://www.w3.org/2000/svg">
<g id="Group 2454">
<path id="Vector" d="M13.4821 0.35791L15.0444 3.29624C15.3846 3.82627 15.7805 4.31833 16.2255 4.76398C17.5342 6.07261 18.7797 7.44431 19.8948 8.91348C22.5436 12.3922 24.331 16.255 25.6081 20.4375C26.3735 22.9917 26.7892 25.6089 26.8207 28.2577C26.9497 36.174 24.235 42.9723 18.7453 48.6225C17.8558 49.5182 16.8952 50.3403 15.8729 51.0807C15.3282 51.0807 15.0745 50.6507 14.8509 50.2823C14.4209 49.5657 14.1801 48.7816 14.0526 47.9847C13.8605 47.0272 13.7329 46.0698 13.7974 45.0793V44.6321C13.7659 44.5361 13.2872 0.582944 13.4778 0.359344L13.4821 0.35791Z" fill="#C8C8C8"/>
<path id="Vector_2" d="M13.482 0.263148C13.4175 0.134148 13.353 0.231615 13.2899 0.294682C13.3214 0.932515 13.0978 1.50728 12.7452 2.05051C12.3625 2.59518 11.8508 3.00798 11.3406 3.45518C8.4997 5.91335 6.26657 8.88178 4.47777 12.2014C2.11564 16.6705 0.871505 21.4578 0.521772 26.5017C0.364105 28.3221 1.09511 34.7377 1.67131 36.5881C3.23364 41.5044 6.04297 45.621 9.69797 49.1957C10.5924 50.0557 11.5498 50.8555 12.5388 51.6209C12.8255 51.6209 12.8585 51.3658 12.9215 51.1737C13.0473 50.7661 13.1431 50.3498 13.2082 49.9281C13.4949 48.3328 13.6554 46.7361 13.846 45.1408L13.4949 0.263148H13.482Z" fill="#C8C8C8"/>
<path id="Vector_3" d="M15.0486 53.0272C15.1131 52.2933 15.4786 51.687 15.8469 51.0807C15.4642 50.9231 15.1761 50.602 14.9525 50.2494C14.7605 49.9298 14.6014 49.5327 14.4738 49.1959C14.0266 47.8557 13.9291 46.4511 13.803 45.0779V44.2466C13.6453 44.3756 13.6109 45.4592 13.6109 45.6197C13.5149 47.0874 13.3243 48.5251 13.0376 49.9283C12.9416 50.5016 12.8799 51.0779 12.5273 51.5881C12.5273 51.6526 12.5273 51.7171 12.5589 51.8117C13.1322 53.503 13.2927 55.2274 13.3902 56.9832V57.621C13.3902 58.3864 13.3587 58.2273 13.9965 58.481C14.2516 58.5771 14.5412 58.61 14.7949 58.8007C14.9869 58.8007 15.0185 58.643 15.0185 58.514L14.9224 57.4605V54.5222C14.8909 54.0119 14.9869 53.5002 15.0514 53.0215L15.0486 53.0272Z" fill="#C8C8C8"/>
<g id="Group">
<path id="Vector_4" d="M39.2874 39.6786V42.7185C39.284 42.8389 39.2908 42.9594 39.3079 43.0786C39.3474 43.4386 39.5684 43.6582 39.8933 43.7592C40.1965 43.839 40.5045 43.8991 40.8154 43.9392C40.9954 43.9597 41.0554 44.0387 41.0759 44.2319C41.0964 44.9125 41.0364 44.993 40.3763 44.952C38.8366 44.8715 37.2954 44.8525 35.7557 44.952H35.6093C35.1293 44.9725 35.0898 44.9315 35.0898 44.4515C35.0898 44.371 35.1102 44.2714 35.1102 44.1909C35.1102 44.0446 35.2098 43.9714 35.3503 43.9714C35.6723 43.9319 35.9708 43.8514 36.2724 43.7914C36.6924 43.6918 36.931 43.4313 36.972 43.0113C37.0305 42.5517 37.0305 42.0716 37.0305 41.6106L37.051 36.2508C37.0576 36.0954 37.0198 35.9413 36.9421 35.8065C36.8643 35.6717 36.7498 35.5619 36.6119 35.4898C36.25 35.2887 35.8672 35.1277 35.4703 35.0097C35.3503 34.9702 35.2303 34.9512 35.1307 34.8897C34.838 34.7492 34.8307 34.4901 35.1102 34.3291C35.2098 34.2706 35.3298 34.2296 35.4498 34.2091C36.6636 34.03 37.8562 33.7284 39.0093 33.309C39.2493 33.2285 39.3093 33.2504 39.3313 33.489C39.3518 33.6354 39.3313 33.811 39.3108 33.9486C39.2713 34.2091 39.2713 34.4682 39.2713 34.7097C39.2713 34.8092 39.2918 34.9102 39.3913 34.9702C39.4908 35.0302 39.5918 34.9702 39.684 34.9116C40.1041 34.5896 40.5241 34.2911 40.9837 34.0335C41.6423 33.6734 42.3449 33.3529 43.106 33.2534C44.028 33.1334 44.8257 33.3734 45.5268 33.9735C45.8166 34.2329 46.0719 34.5285 46.2864 34.8531C46.4869 35.1458 46.5059 35.1531 46.7664 34.9526C47.5275 34.3921 48.3267 33.893 49.1873 33.5329C50.0874 33.1524 51.008 33.0938 51.9271 33.4129C52.8668 33.7525 53.5078 34.4126 53.8884 35.3127C54.2104 36.0328 54.348 36.7763 54.348 37.552V42.9117C54.348 43.2718 54.4943 43.4972 54.8485 43.6728C55.229 43.8192 55.6491 43.8924 56.0487 43.9729C56.3092 44.0314 56.3092 44.0314 56.3092 44.2949C56.2697 44.9535 56.2097 44.9945 55.5686 44.9535C53.9633 44.8635 52.3542 44.8635 50.7489 44.9535C50.4269 44.974 50.4269 44.974 50.4094 44.6534V44.5539C50.3889 44.0124 50.3889 44.0124 50.9099 43.8953L51.4295 43.7548C51.6055 43.7134 51.7625 43.6139 51.8751 43.4723C51.9876 43.3308 52.0493 43.1555 52.0501 42.9747L52.1086 41.4745L52.0691 37.5549C52.0538 37.205 51.9795 36.8601 51.8496 36.5348C51.349 35.3141 50.2498 34.8751 49.1887 34.9951C48.3881 35.0756 47.6885 35.3946 47.0284 35.8557C46.8879 35.9552 46.7884 36.0752 46.8089 36.2757C46.9889 37.5564 46.8674 38.837 46.8894 40.1162V42.8971C46.8894 43.3977 47.0899 43.6377 47.57 43.7577L48.492 43.9582C48.6326 43.9787 48.7116 44.0387 48.7116 44.1983V44.3446C48.6911 44.9052 48.653 44.9301 48.091 44.9242C46.4913 44.8437 44.8901 44.8657 43.3109 44.9242C42.7693 44.9447 42.7254 44.8847 42.7503 44.3388C42.7708 44.0168 42.8088 43.9992 43.1103 43.9392L43.769 43.8192C44.3544 43.6992 44.5696 43.4796 44.6091 42.8591L44.6676 41.5184L44.6281 37.4978C44.5886 36.9973 44.4817 36.5172 44.2081 36.0577C43.8085 35.3171 43.1835 34.938 42.3273 34.897C41.4667 34.8385 40.7071 35.1575 39.9855 35.5556C39.485 35.8484 39.2654 36.1952 39.305 36.7763V39.6962L39.2874 39.6786ZM76.971 39.8001V42.6205C76.9742 42.821 76.9874 43.0213 77.0105 43.2206C77.0191 43.3534 77.0705 43.4798 77.1571 43.5809C77.2436 43.682 77.3607 43.7522 77.4906 43.7811C77.8357 43.8817 78.1913 43.9421 78.5502 43.9612C78.7507 43.9816 78.7903 44.0607 78.8107 44.2217V44.3622C78.7903 45.0618 78.7112 45.1423 78.0306 45.1028C76.5085 45.0032 74.9907 45.0223 73.47 45.1028L72.8846 45.1233C72.7646 45.1233 72.7382 45.0647 72.7046 44.9828C72.6461 44.7058 72.6461 44.4196 72.7046 44.1426C72.7251 44.0226 72.8041 43.9963 72.9241 43.9626C73.2168 43.9231 73.4656 43.8631 73.7437 43.8163C74.2443 43.6962 74.4243 43.4943 74.4433 42.9761L74.5019 41.2959V36.3753C74.5019 36.0152 74.3614 35.7957 74.0423 35.6347C73.6823 35.4342 73.3017 35.2951 72.9007 35.1546C72.7807 35.1151 72.6607 35.0741 72.5611 35.0141C72.3006 34.8341 72.2684 34.575 72.5216 34.3745C72.6352 34.2812 72.7746 34.225 72.9212 34.2135C74.2018 34.013 75.4415 33.7334 76.6417 33.2534C76.7822 33.1948 76.8422 33.2329 76.9022 33.3529C76.9622 33.4729 76.9827 33.6134 76.9607 33.7525L76.9022 34.6921C76.9022 34.8121 76.8437 34.9848 76.9417 35.0317C77.0617 35.1122 77.1422 34.9321 77.2418 34.8853C77.8323 34.3899 78.4847 33.9732 79.1825 33.6456C79.8031 33.3529 80.4412 33.1656 81.1628 33.2065C82.5034 33.287 83.4636 33.9676 84.0827 35.1473C84.4047 35.7679 84.5423 36.447 84.6023 37.148L84.6608 38.6117L84.6813 43.0318C84.7018 43.3713 84.8218 43.5923 85.1614 43.7123C85.5134 43.8297 85.8747 43.9168 86.2415 43.9729C86.5635 44.0124 86.5811 44.0724 86.6016 44.3724V44.4719C86.562 45.1525 86.5211 45.1716 85.8405 45.1306C84.3482 45.0506 82.8527 45.0506 81.3604 45.1306C81.1598 45.1511 80.9608 45.1306 80.7749 45.1511C80.6549 45.1511 80.5744 45.1306 80.5554 45.0106C80.5159 44.75 80.4749 44.491 80.5349 44.21C80.5554 44.09 80.6154 44.0299 80.7544 44.0094L81.6765 43.8631C81.9985 43.7826 82.1771 43.5704 82.218 43.2776L82.2575 42.7171L82.2371 38.537C82.2371 38.0569 82.2166 37.5769 82.117 37.0968C81.877 36.0723 81.0969 35.3405 80.0387 35.238C79.1166 35.1385 78.2824 35.3785 77.5184 35.8776C77.1378 36.1177 76.9768 36.4572 76.9768 36.8773V39.8982C76.9768 39.8396 76.9768 39.8396 76.9973 39.8396L76.971 39.8001Z" fill="#C8C8C8"/>
<path id="Vector_5" d="M135.553 34.1389C135.334 32.6782 134.792 31.3785 133.853 30.2384C133.034 29.2311 131.974 28.4468 130.772 27.9581C129.513 27.4385 128.171 27.2775 126.811 27.238C126.251 27.2175 118.611 27.3375 118.05 27.238C117.91 27.2175 117.81 27.2584 117.728 27.3785C117.629 27.5248 117.528 27.6785 117.468 27.838C117.228 28.3796 117.228 28.3386 117.807 28.4176C118.287 28.4981 118.747 28.5376 119.208 28.6781C119.628 28.8187 119.928 29.0587 120.027 29.5183C120.067 29.7378 120.108 36.7778 120.108 40.0592L120.027 42.401C120.007 42.581 119.988 42.761 119.928 42.9205C119.847 43.1606 119.708 43.3596 119.468 43.4621C119.204 43.5864 118.919 43.6608 118.628 43.6816C118.087 43.7402 118.008 43.7621 117.828 44.3622L117.769 44.5817C117.73 44.8423 117.749 44.8818 118.009 44.8818L123.989 44.9403L126.331 44.9008L127.951 44.7003C129.791 44.3607 131.432 43.5997 132.831 42.3805C133.63 41.6746 134.283 40.8182 134.751 39.8601C135.312 38.7405 135.552 37.5184 135.612 36.2801C135.711 35.5805 135.671 34.8604 135.553 34.1403V34.1389ZM132.653 36.9783C132.572 38.2589 132.313 39.4986 131.653 40.6183C130.813 42.079 129.613 43.0991 127.953 43.4577C127.233 43.6041 126.513 43.6772 125.757 43.5777C125.216 43.5192 124.698 43.4577 124.197 43.2777C123.297 42.9557 122.977 42.3995 122.958 41.5213L122.937 29.4612C122.937 28.7411 123.259 28.583 123.777 28.5611C124.557 28.5025 125.358 28.5215 126.138 28.6006C126.968 28.6809 127.783 28.878 128.559 29.186C129.135 29.4261 129.669 29.7572 130.14 30.1666C131.22 31.0887 131.94 32.245 132.335 33.6061C132.657 34.7068 132.715 35.8264 132.657 36.9461L132.653 36.9783ZM152.177 38.9395C152.177 38.8195 152.177 38.72 152.157 38.6C151.977 37.4993 151.396 36.6592 150.497 36.0196C149.917 35.5996 149.257 35.32 148.577 35.1195C148.457 35.08 148.357 35.039 148.237 35.02C148.258 34.9205 148.318 34.9 148.378 34.8795C148.777 34.679 149.158 34.4594 149.497 34.1594C150.118 33.6398 150.522 32.9987 150.737 32.2186C150.857 31.7986 150.857 31.3785 150.817 30.938C150.785 30.4226 150.637 29.9212 150.384 29.471C150.131 29.0207 149.78 28.6332 149.357 28.3371C148.435 27.6565 147.356 27.377 146.236 27.3565C144.076 27.317 141.897 27.3565 139.738 27.3565C139.117 27.3565 138.498 27.396 137.857 27.298C137.737 27.2775 137.564 27.2394 137.477 27.3785C137.33 27.639 137.155 27.898 137.096 28.1981C137.076 28.3386 137.117 28.4176 137.276 28.4381L138.656 28.6386C139.198 28.7191 139.578 29.0192 139.616 29.4992C139.656 29.831 139.675 30.1648 139.675 30.4989L139.635 34.2384L139.615 41.6384C139.615 42.0775 139.556 42.499 139.474 42.9381C139.455 43.0775 139.395 43.2083 139.303 43.3147C139.211 43.4212 139.09 43.4987 138.955 43.5382C138.555 43.6582 138.175 43.7782 137.755 43.7782C137.642 43.7676 137.53 43.7954 137.435 43.8571C137.341 43.9188 137.27 44.0107 137.235 44.1178C137.155 44.2978 137.089 44.4983 137.055 44.6783C137.016 44.9184 137.076 45.0003 137.316 44.9711C137.496 44.9506 144.097 45.1116 145.336 44.9916C146.077 44.9111 146.8 44.8115 147.536 44.592C148.795 44.1924 149.957 43.6114 150.876 42.6308C151.637 41.8302 152.076 40.87 152.116 39.7504C152.174 39.4898 152.174 39.2308 152.174 38.9498L152.177 38.9395ZM142.476 30.7433L142.535 29.1436C142.535 28.8435 142.655 28.7045 142.955 28.643C143.435 28.5435 143.915 28.5845 144.395 28.6035C144.875 28.643 145.335 28.703 145.815 28.8435C146.693 29.1041 147.375 29.6046 147.776 30.4433C147.958 30.8246 148.053 31.2414 148.056 31.6639C148.076 32.2245 148.035 32.7646 147.816 33.3032C147.476 34.0437 146.937 34.5238 146.156 34.6643C145.374 34.8048 143.155 34.7448 142.816 34.7448C142.516 34.7448 142.494 34.7053 142.494 34.4053V32.5216C142.447 31.9358 142.44 31.3476 142.473 30.7609L142.476 30.7433ZM148.975 41.5038C148.635 42.4039 148.015 43.0259 147.135 43.3626C146.655 43.5426 146.175 43.6553 145.671 43.6231C145.051 43.6026 144.432 43.6231 143.813 43.5031C142.972 43.323 142.592 42.5224 142.532 41.9429C142.432 40.9227 142.492 39.8821 142.473 39.1225V36.4821C142.473 36.1601 142.513 36.0621 142.854 36.0621L144.735 36.0826L146.015 36.2289C146.915 36.4294 147.735 36.7705 148.376 37.4686C148.896 38.0292 149.177 38.7083 149.237 39.4489C149.295 40.1485 149.257 40.829 148.997 41.4891L148.975 41.5038Z" fill="#C8C8C8"/>
<path id="Vector_6" d="M98.1536 35.478L98.6732 35.5585C99.2338 35.579 99.8939 35.3785 100.093 34.5984C100.203 34.2258 100.203 33.8294 100.093 33.4568C99.9729 33.4568 99.9129 33.5563 99.8529 33.5973C99.5528 33.8373 99.2133 33.9778 98.8532 34.0174C98.1331 34.0979 97.413 34.0569 96.7134 33.7978L95.7328 33.4583C95.0489 33.2343 94.3291 33.14 93.6106 33.1802C92.5904 33.2607 91.6303 33.6002 90.7302 34.0803C89.7701 34.5999 89.0909 35.38 88.769 36.4411C88.5889 37.0617 88.5684 37.6998 88.6489 38.3409C88.8495 39.8015 89.6091 40.8217 90.9688 41.3618C91.0493 41.3822 91.1093 41.4203 91.1883 41.4423C91.3683 41.5418 91.3888 41.6428 91.2278 41.7818L90.7273 42.1214L89.5271 42.862C89.2271 43.042 89.1875 43.184 89.2871 43.5016C89.4061 43.8752 89.6277 44.2079 89.9267 44.4617C90.2011 44.6972 90.5121 44.8865 90.8473 45.0222C91.0668 45.1218 91.0668 45.1686 90.8678 45.3442L89.7262 46.1639C89.3456 46.4566 88.9651 46.7493 88.646 47.124C88.4241 47.3614 88.2642 47.65 88.1805 47.964C88.0967 48.278 88.0917 48.6078 88.1659 48.9242C88.3147 49.6185 88.6783 50.2484 89.2051 50.7245C89.7253 51.2061 90.3578 51.5498 91.0449 51.7241C92.1645 52.0461 93.3252 52.0637 94.4653 51.8441C96.1046 51.5441 97.5389 50.8196 98.6659 49.5843C99.446 48.7647 99.9056 47.8046 99.9466 46.6571C99.9902 45.9935 99.7971 45.3359 99.4015 44.8012C99.006 44.2666 98.4336 43.8896 97.7863 43.7372L96.7061 43.5367L93.4057 43.244C93.0456 43.2235 92.6856 43.1635 92.3855 42.9834C92.005 42.7434 91.9055 42.2838 92.1455 41.9838C92.3255 41.7642 92.5451 41.6237 92.8261 41.6033L93.4657 41.5447C94.7306 41.416 95.918 40.875 96.8452 40.005C97.3402 39.5468 97.6941 38.9568 97.8653 38.3043C98.1053 37.4437 98.1053 36.5479 97.9048 35.6698C97.8463 35.4502 97.8653 35.4297 98.1448 35.4693L98.1536 35.478ZM93.2505 45.4408C93.3705 45.4613 93.4906 45.4408 93.6106 45.4408C94.4507 45.4804 95.3113 45.5404 96.1309 45.7628C96.3985 45.8419 96.6594 45.9423 96.911 46.0629C97.7116 46.502 98.0117 47.263 97.9107 48.0827C97.7906 48.9828 97.2901 49.6224 96.51 50.0439C95.9904 50.3366 95.4094 50.464 94.8093 50.524C94.5897 50.5445 94.3892 50.524 94.1697 50.524C93.4701 50.5445 92.7895 50.4654 92.1294 50.1844C91.6698 50.0044 91.2893 49.7453 90.9497 49.3838C90.2501 48.6842 89.9252 47.4035 90.9702 46.3629C91.6098 45.7775 92.3314 45.3633 93.2505 45.4408ZM95.5308 39.2C95.1108 40.2597 94.1902 40.5802 93.271 40.4397C92.4309 40.3197 91.8103 39.8601 91.4122 39.099C90.8927 38.0789 90.7536 37.0207 91.0522 35.9186C91.2717 35.099 91.7723 34.4784 92.6519 34.3379C93.7716 34.1374 94.8473 34.5384 95.4123 35.6581C95.705 36.1996 95.8323 36.8582 95.8323 37.7979C95.8118 38.1784 95.7328 38.698 95.5323 39.1985L95.5308 39.2ZM70.3304 37.8388C70.1504 36.7587 69.7508 35.7781 69.0102 34.9585C67.9096 33.7378 66.5104 33.2021 64.9297 33.1977C63.5495 33.1772 62.2512 33.5783 61.0891 34.2984C59.9467 34.982 59.1093 36.0771 58.7488 37.3588C58.4093 38.5194 58.4268 39.7006 58.6903 40.8788C59.3899 44.0402 61.8312 45.3984 64.7496 45.1993C65.6102 45.1408 66.4299 44.8598 67.2085 44.4792C68.3691 43.9377 69.2093 43.0786 69.7888 41.9384C70.2484 40.9988 70.4475 39.9977 70.4284 38.8575L70.3289 37.8374L70.3304 37.8388ZM67.491 42.2794C67.3479 42.7295 67.0768 43.1281 66.7108 43.4265C66.3449 43.7249 65.8998 43.9102 65.4302 43.9597C64.552 44.0797 63.7295 43.8601 62.9904 43.3391C62.4568 42.9466 62.0247 42.4322 61.7302 41.8389C60.9106 40.1587 60.7701 38.3994 61.1887 36.5992C61.3234 36.042 61.615 35.5351 62.0288 35.1385C62.7694 34.4579 63.6285 34.2984 64.5901 34.4989C65.5122 34.6994 66.2103 35.1985 66.7855 35.9596C67.3607 36.7206 67.6256 37.5988 67.7852 38.5209C67.8657 38.9805 67.8657 39.4605 67.8847 39.7606C67.8847 40.7207 67.8042 41.5169 67.5041 42.2809L67.491 42.2794ZM114.034 37.9998C113.887 36.8392 113.454 35.7795 112.633 34.8999C111.553 33.7202 110.152 33.2197 108.594 33.1992C107.253 33.1787 106.013 33.5592 104.873 34.2193C103.592 34.9804 102.713 36.0591 102.373 37.5198C101.968 39.1134 102.138 40.7989 102.853 42.2794C103.512 43.6801 104.633 44.5802 106.114 44.9798C107.753 45.4189 109.315 45.2198 110.834 44.4792C112.155 43.8397 113.094 42.84 113.634 41.4788C113.956 40.6783 114.073 39.8191 114.094 38.818C114.114 38.638 114.073 38.3174 114.035 37.9984L114.034 37.9998ZM111.273 42.0204C110.951 43.1005 110.274 43.8001 109.134 43.9611C108.294 44.0811 107.494 43.8806 106.773 43.4006C106.152 42.9805 105.713 42.4199 105.393 41.7613C105.033 41.0617 104.832 40.3211 104.753 39.5615C104.633 38.6219 104.633 37.7027 104.853 36.7616C104.894 36.5761 104.955 36.3951 105.033 36.2216C105.593 34.8209 106.833 34.1813 108.294 34.5018C109.274 34.7214 110.013 35.2629 110.574 36.0825C111.115 36.8831 111.374 37.7627 111.496 38.717C111.554 39.0975 111.576 39.4971 111.554 39.8367C111.554 40.6168 111.496 41.3369 111.262 42.0365L111.273 42.0204Z" fill="#C8C8C8"/>
</g>
</g>
</svg>
