<svg width="136" height="25" viewBox="0 0 136 25" fill="none" xmlns="http://www.w3.org/2000/svg">
<g id="Group 2455">
<g id="Group">
<path id="Vector" fill-rule="evenodd" clip-rule="evenodd" d="M18.1705 15.5994C17.1095 15.5754 16.2799 15.6791 15.5858 15.974C15.3864 16.0537 15.0673 16.0537 15.0433 16.3088C15.147 16.4124 15.163 16.5878 15.2587 16.7313C15.4414 17.0403 15.6762 17.3154 15.9528 17.5443L16.8064 18.1581C17.3249 18.477 17.9073 18.6603 18.4178 18.9792C18.713 19.1625 19.0002 19.4016 19.2156 19.6009C19.3592 19.7046 19.4549 19.8799 19.6384 19.9437V19.9038C19.5427 19.7843 19.5187 19.6089 19.423 19.4814L19.0241 19.0987C18.6354 18.5844 18.1699 18.1328 17.644 17.7596C17.2212 17.4646 16.2878 17.0661 16.1123 16.5798L16.0884 16.5559C16.3836 16.532 16.7266 16.4204 17.0058 16.3407C17.4605 16.2211 17.8674 16.245 18.3381 16.1255L18.9763 15.9421V15.8226C18.7369 15.5834 18.5614 15.2646 18.3141 15.0414C17.636 14.4595 16.8941 13.8855 16.1203 13.4073C15.7055 13.1442 15.179 12.9689 14.7402 12.7457C14.5806 12.6659 14.3174 12.6261 14.2217 12.4906C13.9823 12.1956 13.8467 11.813 13.6792 11.4703L12.5863 9.1586C12.3469 8.64047 12.2033 8.12234 11.9082 7.64407C10.6761 5.5505 8.89748 3.83113 6.76264 2.67001C6.26804 2.39102 5.68568 2.27145 5.06343 2.12797L4.06623 2.07217C3.85084 1.97652 3.64342 1.72941 3.45196 1.60984C2.69409 1.13156 0.739595 0.0953034 0.260942 1.46636C-0.0980478 2.32725 0.795437 3.18017 1.09858 3.61859C1.32196 3.9215 1.61713 4.27223 1.77668 4.615C1.87241 4.83819 1.89634 5.07733 1.99207 5.31647L2.68612 7.09405C2.83014 7.37974 2.99548 7.65419 3.18073 7.91509C3.28443 8.05857 3.47589 8.13031 3.51578 8.36945C3.3323 8.6325 3.31634 9.03106 3.21263 9.36586C2.73398 10.8644 2.91747 12.7297 3.59556 13.8297C3.81095 14.1645 4.39331 14.8899 4.99163 14.6109C5.58995 14.3718 5.45433 13.6145 5.62983 12.9529C5.66972 12.7935 5.64579 12.6899 5.72556 12.5783V12.6022L6.26804 13.7022C6.68287 14.3559 7.40085 15.0334 7.99917 15.4798C8.31827 15.7189 8.57355 16.1334 8.97243 16.2769V16.2371H8.91658C8.83681 16.1175 8.71714 16.0617 8.61344 15.974C8.36068 15.7277 8.12856 15.4611 7.91939 15.1769C7.35614 14.4144 6.85717 13.6065 6.42759 12.7616C6.21219 12.3471 6.02871 11.9007 5.8532 11.4862C5.77343 11.3268 5.77343 11.0876 5.63781 11.0079C5.43837 11.3029 5.1432 11.55 4.99961 11.9087C4.74433 12.4826 4.72039 13.1841 4.62466 13.9174C4.14601 13.8377 4.00241 13.3993 3.84286 13.0247C3.44398 12.084 3.38016 10.5536 3.7232 9.47745C3.81893 9.19846 4.21781 8.32162 4.05826 8.05857C3.97848 7.80349 3.71522 7.66001 3.56365 7.46073C3.38814 7.20565 3.20466 6.8868 3.08499 6.60781C2.85365 5.85851 2.61432 5.0295 2.27128 4.28818C2.11173 3.94541 1.83252 3.59468 1.60117 3.27583C1.35387 2.90915 1.07465 2.65407 0.875213 2.23957C0.803415 2.08014 0.715662 1.841 0.81937 1.68158C0.843303 1.57795 0.899146 1.5381 1.00285 1.50621C1.17836 1.36273 1.66499 1.54607 1.8405 1.62578C2.3351 1.82506 2.74196 2.0084 3.15679 2.28739C3.34028 2.4229 3.53972 2.67001 3.77904 2.74175H4.05826C4.48107 2.83741 4.95972 2.76567 5.3586 2.88524C6.06062 3.10843 6.69882 3.44322 7.27321 3.80193C9.0337 4.92334 10.4651 6.49115 11.4215 8.34554C11.5811 8.64844 11.6449 8.92744 11.7965 9.24629L12.6979 11.1992C12.9772 11.821 13.2404 12.4587 13.6393 12.9768C13.8387 13.2558 14.6365 13.3993 14.9955 13.5508C15.2587 13.6703 15.6736 13.774 15.9129 13.9254L17.2451 14.8262C17.4605 14.9856 18.0429 15.3204 18.1626 15.5834L18.1705 15.5994Z" fill="#C8C8C8"/>
<path id="Vector_2" fill-rule="evenodd" clip-rule="evenodd" d="M4.60888 4.04919C4.38551 4.04919 4.22596 4.07311 4.06641 4.11296V4.13688H4.09034C4.19405 4.3521 4.38551 4.49558 4.51315 4.67892L4.8163 5.31662L4.84023 5.29271C5.02371 5.1572 5.11944 4.94994 5.11944 4.63109C5.03967 4.53544 5.02371 4.44776 4.95989 4.3521C4.88012 4.21659 4.70461 4.15282 4.6009 4.04919H4.60888Z" fill="#C8C8C8"/>
</g>
<path id="Vector_3" fill-rule="evenodd" clip-rule="evenodd" d="M75.1621 19.0603H86.6019C87.9421 19.0603 89.2186 18.7892 90.2556 18.303C91.9868 17.5059 92.8084 16.4457 92.8084 15.0507V12.1333C92.8084 11.0173 91.8671 9.94117 89.9844 9.21579C88.9011 8.83156 87.7594 8.63739 86.6099 8.64186H81.8074C80.1959 8.64186 79.4381 8.16358 79.2227 7.09544C79.1908 6.97587 79.1908 6.8563 79.1908 6.72876V4.93523C79.1908 4.83957 79.1908 4.72001 79.2227 4.60044C79.4381 3.7794 79.8609 3.56418 81.2649 3.40475H92.976V0.758301H81.8313C80.2199 0.758301 79.3583 0.853955 78.6084 1.09309C76.263 1.8105 75.2339 2.9743 75.2339 5.01494V7.3266C75.2339 9.12013 77.2443 10.6426 80.6586 10.9934C81.0256 11.0253 81.4165 11.0253 81.8154 11.0253H85.9238C86.0834 11.0253 86.227 11.0253 86.3466 11.0571C87.5911 11.1767 88.1416 11.3919 88.5006 11.8543C88.7399 12.0934 88.8037 12.3086 88.8037 12.5876V14.8993C88.8037 15.1703 88.6202 15.537 88.2453 15.8399C87.8703 16.1428 87.3039 16.358 86.5381 16.3979C86.3785 16.3979 86.2988 16.4298 86.1392 16.4298H75.1621V19.0603ZM117.563 14.4688C117.563 17.1791 119.605 18.6936 123.682 18.9965L124.838 19.0603H135.177V16.4298H124.751C122.357 16.4298 121.56 15.8558 121.56 14.4529V0.766271H117.571V14.4768L117.563 14.4688ZM95.3294 14.5884V5.17437C95.3294 2.783 97.0286 1.31629 100.355 0.869898L101.416 0.806128H108.963C109.362 0.806128 109.697 0.838013 110.08 0.869898C113.399 1.32426 115.066 2.783 115.066 5.17437V14.5964C115.066 16.5414 114.364 17.5776 112.72 18.2631L116.613 21.7864H112.018L108.851 18.9327L105.66 19.1161H101.4C100.698 19.1161 99.9085 19.0364 99.007 18.8132C96.4861 18.1117 95.2336 16.7725 95.2336 14.5884H95.3294ZM99.6213 14.3811C99.6213 14.5007 99.6851 14.6203 99.717 14.7797C99.9324 15.8718 100.962 16.4776 102.541 16.4776H106.131L102.844 13.4963H107.439L110.327 16.1109C110.886 15.808 111.205 15.3776 111.332 14.8355C111.364 14.7159 111.364 14.5645 111.364 14.4369V5.42945C111.364 5.30988 111.364 5.19031 111.332 5.06277C111.117 4.02651 110.088 3.45258 108.54 3.45258H102.557C100.802 3.45258 99.6372 4.20985 99.6372 5.42945L99.6213 14.3811Z" fill="#C8C8C8"/>
<path id="Vector_4" fill-rule="evenodd" clip-rule="evenodd" d="M22.3589 19.0761H26.3158V3.42058L32.4904 17.0673C33.1924 18.7094 34.1976 19.3152 36.1441 19.3152C38.0906 19.3152 39.032 18.7094 39.7659 17.0673L45.9086 3.42058V19.0761H49.8974V3.42058C49.8974 1.90604 49.2911 1.17269 48.0147 0.774126C45.0071 -0.134595 42.9888 0.654558 42.0794 2.68722L36.0165 16.1825L30.1769 2.68722C29.2994 0.654558 27.2571 -0.134595 24.2177 0.774126C22.9732 1.17269 22.3589 1.8901 22.3589 3.42058V19.0761ZM53.1762 6.33805H57.1649V14.947C57.133 15.4253 57.3245 16.5253 59.5582 16.5572H68.1101V6.27428H72.0989V20.3435C72.0989 23.811 67.807 24.5683 65.7966 24.6002H53.2719V21.9537H65.8365C68.3893 21.6827 68.0862 20.4073 68.0862 19.9768V18.9406H59.6539C55.729 18.9087 53.2081 17.1869 53.1762 15.1941V6.33805Z" fill="#C8C8C8"/>
</g>
</svg>
