<svg width="103" height="33" viewBox="0 0 103 33" fill="none" xmlns="http://www.w3.org/2000/svg">
<g id="Group">
<path id="Vector" d="M12.5158 8.14851C14.1739 8.14851 15.7399 8.47779 17.2128 9.13602C18.6851 9.79425 19.9797 10.6808 21.0971 11.7948C22.2141 12.909 23.1027 14.2092 23.7628 15.6945C24.4227 17.181 24.7528 18.7673 24.7528 20.4552C24.7528 22.1441 24.4307 23.722 23.788 25.1907C23.1445 26.6594 22.2727 27.9509 21.1729 29.0651C20.0725 30.1792 18.7778 31.0576 17.2886 31.6987C15.7985 32.3408 14.1913 32.6612 12.4649 32.6612C10.7719 32.6612 9.1812 32.3574 7.69206 31.7497C6.2021 31.1418 4.89947 30.2896 3.78237 29.192C2.66559 28.0951 1.78478 26.8038 1.14206 25.3175C0.498687 23.8319 0.177246 22.2112 0.177246 20.4552C0.177246 18.7673 0.489845 17.1885 1.11652 15.7198C1.74237 14.2511 2.61417 12.9683 3.7316 11.871C4.84854 10.7739 6.16001 9.89552 7.66668 9.23745C9.17252 8.57889 10.7894 8.21645 12.5158 8.14851ZM12.465 13.1623C11.4829 13.1623 10.5436 13.3486 9.64707 13.7195C8.74989 14.0914 7.97158 14.6059 7.31118 15.2643C6.65127 15.9225 6.12612 16.691 5.73738 17.5686C5.34782 18.447 5.15344 19.4094 5.15344 20.4553C5.15344 21.435 5.34798 22.3721 5.73738 23.2663C6.12612 24.1612 6.65127 24.9464 7.31118 25.6214C7.97125 26.2973 8.74956 26.8291 9.64707 27.2169C10.5436 27.6054 11.4829 27.7991 12.465 27.7991C13.4347 27.8016 14.3943 27.6033 15.2832 27.2169C16.1797 26.8291 16.9585 26.2973 17.6189 25.6214C18.279 24.9464 18.8033 24.1615 19.1929 23.2663C19.5802 22.3797 19.7789 21.4225 19.7765 20.4553C19.6751 18.4638 18.9641 16.7838 17.6443 15.416C16.324 14.0486 14.6143 13.2974 12.516 13.162L12.465 13.1623ZM47.8554 0.349014C48.4306 0.315694 48.9723 0.543382 49.4802 1.03273C49.988 1.52257 50.2417 2.05438 50.2417 2.62817V20.4049C50.2417 22.0596 49.903 23.6296 49.2263 25.1149C48.5485 26.6013 47.6348 27.9006 46.4844 29.0147C45.3333 30.1289 44.0218 31.0153 42.5494 31.6736C41.0769 32.3318 39.5282 32.6612 37.9034 32.6612C36.2445 32.6612 34.6705 32.3408 33.1812 31.6987C31.6913 31.0576 30.3886 30.1792 29.2715 29.0651C28.1546 27.9512 27.2659 26.6517 26.6058 25.1654C25.9459 23.68 25.6158 22.0933 25.6158 20.4049C25.6158 18.5816 25.9119 16.9783 26.5045 15.5934C27.0961 14.2092 27.9848 12.909 29.17 11.6937V11.7445C30.422 10.5631 31.8016 9.66783 33.3081 9.06007C34.8138 8.45214 36.3624 8.14851 37.954 8.14851C38.9012 8.14851 40.027 8.30041 41.3306 8.60437C42.6332 8.90801 43.928 9.49928 45.215 10.377V2.88133C45.215 2.54421 45.2823 2.22294 45.4181 1.91881C45.5527 1.61517 45.7324 1.33352 45.9513 1.08336C46.1668 0.833179 46.4357 0.634184 46.7382 0.500913C47.0428 0.36649 47.3477 0.315694 47.6523 0.349014H47.8554ZM45.215 20.4049C45.215 19.4933 45.0199 18.5987 44.6311 17.7203C44.2438 16.8461 43.702 16.0484 43.0316 15.3654C42.3609 14.6783 41.5691 14.1203 40.6957 13.7193C39.8151 13.3144 38.8845 13.1116 37.9031 13.1116C36.9335 13.1092 35.9739 13.3074 35.085 13.6937C34.1878 14.0824 33.4097 14.6054 32.7492 15.2638C32.0893 15.922 31.564 16.6992 31.1753 17.5936C30.7857 18.4885 30.5917 19.4257 30.5917 20.4046C30.5917 21.4174 30.786 22.3631 31.1753 23.2407C31.564 24.1191 32.0893 24.8866 32.7492 25.5448C33.4093 26.2032 34.1876 26.727 35.085 27.1148C35.9818 27.5033 36.9209 27.6971 37.9031 27.6971C38.8845 27.6971 39.8151 27.503 40.6957 27.1148C41.5755 26.727 42.354 26.2032 43.0316 25.5448C43.7084 24.8866 44.2416 24.1191 44.6311 23.2407C45.0197 22.3636 45.215 21.4179 45.215 20.4049ZM64.0018 8.14851C65.66 8.14851 67.2258 8.47779 68.6988 9.13602C70.1712 9.79425 71.4658 10.6808 72.5831 11.7948C73.7 12.909 74.5887 14.2092 75.2488 15.6945C75.9088 17.181 76.2388 18.7673 76.2388 20.4552C76.2388 22.1441 75.9167 23.722 75.274 25.1907C74.6304 26.6594 73.7586 27.9509 72.6589 29.0651C71.5585 30.1792 70.2637 31.0576 68.7746 31.6987C67.2846 32.3408 65.6772 32.6612 63.9508 32.6612C62.2578 32.6612 60.6671 32.3574 59.1782 31.7497C57.688 31.1418 56.3854 30.2896 55.2683 29.192C54.1515 28.0951 53.2709 26.8038 52.628 25.3175C51.9846 23.8319 51.6632 22.2112 51.6632 20.4552C51.6632 18.7673 51.9758 17.1885 52.6025 15.7198C53.2283 14.2511 54.1001 12.9683 55.2175 11.871C56.3345 10.7739 57.646 9.89552 59.1526 9.23745C60.6586 8.57889 62.2753 8.21645 64.0018 8.14851ZM63.951 13.1623C62.9688 13.1623 62.0297 13.3486 61.133 13.7195C60.2358 14.0914 59.4577 14.6059 58.7973 15.2643C58.1372 15.9225 57.6121 16.691 57.2233 17.5686C56.8338 18.447 56.6394 19.4094 56.6394 20.4553C56.6394 21.435 56.8339 22.3721 57.2233 23.2663C57.6121 24.1612 58.1372 24.9464 58.7973 25.6214C59.4572 26.2973 60.2357 26.8291 61.133 27.2169C62.0297 27.6054 62.9688 27.7991 63.951 27.7991C64.9206 27.8016 65.8802 27.6033 66.7691 27.2169C67.6657 26.8291 68.4446 26.2973 69.1049 25.6214C69.7649 24.9464 70.2893 24.1615 70.6788 23.2663C71.0662 22.3797 71.265 21.4225 71.2626 20.4553C71.1611 18.4638 70.4502 16.7838 69.1302 15.416C67.8099 14.0486 66.1002 13.2974 64.0021 13.162L63.951 13.1623ZM89.7955 8.14851C91.4536 8.14851 93.0196 8.47779 94.4923 9.13602C95.9648 9.79425 97.2594 10.6808 98.3768 11.7948C99.4936 12.909 100.382 14.2092 101.042 15.6945C101.702 17.181 102.032 18.7673 102.032 20.4552C102.032 22.1441 101.71 23.722 101.068 25.1907C100.424 26.6594 99.5524 27.9509 98.4526 29.0651C97.3522 30.1792 96.0575 31.0576 94.5682 31.6987C93.0782 32.3408 91.471 32.6612 89.7446 32.6612C88.0514 32.6612 86.4607 32.3574 84.9717 31.7497C83.4818 31.1418 82.1791 30.2896 81.062 29.192C79.9451 28.0951 79.0645 26.8038 78.4217 25.3175C77.7784 23.8319 77.4569 22.2112 77.4569 20.4552C77.4569 18.7673 77.7694 17.1885 78.396 15.7198C79.022 14.2511 79.8939 12.9683 81.0111 11.871C82.1281 10.7739 83.4395 9.89552 84.9462 9.23745C86.4522 8.57889 88.0691 8.21645 89.7955 8.14851ZM89.7447 13.1623C88.7626 13.1623 87.8233 13.3486 86.9268 13.7195C86.0296 14.0914 85.2513 14.6059 84.5909 15.2643C83.9309 15.9225 83.4058 16.691 83.0169 17.5686C82.6273 18.447 82.4331 19.4094 82.4331 20.4553C82.4331 21.435 82.6277 22.3721 83.0169 23.2663C83.4058 24.1612 83.9309 24.9464 84.5909 25.6214C85.2509 26.2973 86.0292 26.8291 86.9268 27.2169C87.8233 27.6054 88.7626 27.7991 89.7447 27.7991C90.7143 27.8016 91.6739 27.6033 92.5627 27.2169C93.4594 26.8291 94.2382 26.2973 94.8986 25.6214C95.5585 24.9464 96.083 24.1615 96.4726 23.2663C96.8598 22.3796 97.0585 21.4225 97.0562 20.4553C96.9546 18.4638 96.2438 16.7838 94.9236 15.416C93.6035 14.0486 91.894 13.2974 89.7957 13.162L89.7447 13.1623Z" fill="#C8C8C8"/>
</g>
</svg>
