<svg width="106" height="15" viewBox="0 0 106 15" fill="none" xmlns="http://www.w3.org/2000/svg">
<path id="Vector" d="M45.5065 9.60833H52.4447L48.776 3.55463L42.0427 14.4999H38.9784L47.1682 1.3522C47.5242 0.821096 48.1177 0.500122 48.776 0.500122C49.4126 0.500122 50.0061 0.809948 50.3515 1.33011L58.5737 14.4999H55.5094L54.0636 12.0541H47.039L45.5067 9.60833H45.5065ZM77.3381 12.0539V0.632844H74.7377V13.1718C74.7377 13.5149 74.8671 13.847 75.1152 14.1015C75.3634 14.356 75.6979 14.4999 76.0648 14.4999H87.9234L89.4557 12.0541H77.3379L77.3381 12.0539ZM34.3168 10.0065C36.8419 10.0065 38.8921 7.91491 38.8921 5.32524C38.8921 2.73537 36.8419 0.632634 34.3168 0.632634H22.9405V14.5001H25.5401V3.07885H34.1443C35.3529 3.07885 36.3239 4.08615 36.3239 5.32566C36.3239 6.56497 35.3529 7.57206 34.1443 7.57206L26.8134 7.56112L34.5758 14.5001H38.3525L33.13 10.0069H34.317L34.3168 10.0065ZM6.93867 14.4999C3.20625 14.5001 0.177246 11.4012 0.177246 7.57206C0.177246 3.74267 3.20625 0.633055 6.93867 0.633055H14.7973C18.5305 0.633055 21.5573 3.74267 21.5573 7.57206C21.5573 11.4012 18.5305 14.4999 14.7971 14.4999H6.93867ZM14.6225 12.0541C17.0406 12.0541 18.9991 10.0509 18.9991 7.57185C18.9991 5.09303 17.0406 3.07885 14.6225 3.07885H7.11258C4.69532 3.07885 2.7358 5.09303 2.7358 7.57206C2.7358 10.0509 4.69532 12.0541 7.11237 12.0541H14.6223H14.6225ZM64.0012 14.4999C60.268 14.4999 57.2357 11.4012 57.2357 7.57206C57.2357 3.74267 60.268 0.633055 64.0012 0.633055H73.3352L71.8135 3.07885H64.1739C61.7569 3.07885 59.793 5.09303 59.793 7.57206C59.793 10.0509 61.7569 12.0541 64.1739 12.0541H73.5507L72.0184 14.4999H64.0012ZM95.8007 12.0541C93.8044 12.0541 92.1103 10.6819 91.5925 8.78928H102.706L104.239 6.34348H91.5925C92.1103 4.46202 93.8044 3.07885 95.8007 3.07885H103.43L104.972 0.632634H95.6278C91.8943 0.632634 88.8623 3.74246 88.8623 7.57164C88.8623 11.401 91.8943 14.4997 95.6278 14.4997H103.645L105.177 12.0541H95.8005H95.8007Z" fill="#C8C8C8"/>
</svg>
