<svg width="29" height="29" viewBox="0 0 29 29" fill="none" xmlns="http://www.w3.org/2000/svg">
<path id="Vector" d="M15.3687 16.2877C15.1014 15.6256 15.1014 15.0959 15.235 14.5662H2.67281V4.6347L10.6912 9.93151L18.7097 4.6347V6.88584C19.5115 6.48858 20.1797 6.48858 20.5806 6.48858C20.7143 6.35616 20.9816 6.22374 21.2488 6.09132V2.11872C21.3825 0.926941 20.447 0 19.2442 0H2.13825C0.935484 0 0 0.926941 0 2.11872V15.0959C0 16.2877 0.935484 17.2146 2.13825 17.2146H15.9032C15.6359 16.9498 15.5023 16.6849 15.3687 16.2877ZM18.7097 2.6484L10.6912 7.94521L2.67281 2.6484H18.7097ZM28.8664 11.7854C28.5991 10.9909 27.9309 10.8584 27.53 10.4612C27.2627 10.0639 27.2627 9.26941 26.5945 8.87215C25.9263 8.34247 25.2581 8.60731 24.7235 8.47489C24.1889 8.34247 23.788 7.68037 22.9862 7.68037C22.1843 7.68037 21.7834 8.21005 21.2488 8.47489C20.7143 8.60731 20.0461 8.34247 19.3779 8.87215C18.7097 9.26941 18.8433 9.93151 18.4424 10.4612C18.0415 10.8584 17.3733 11.1233 17.106 11.7854C16.8387 12.5799 17.3733 13.1096 17.3733 13.6393C17.3733 14.169 16.8387 14.6986 17.106 15.4932C17.3733 16.2877 18.0415 16.4201 18.4424 16.8174C18.7097 17.2146 18.7097 18.0091 19.3779 18.4064C20.0461 18.9361 20.7143 18.6712 21.2488 18.8037C21.7834 18.9361 22.1843 19.5982 22.9862 19.5982C23.788 19.5982 24.1889 19.0685 24.7235 18.8037C25.2581 18.6712 25.9263 18.9361 26.5945 18.4064C27.2627 17.8767 27.2627 17.2146 27.53 16.8174C27.9309 16.4201 28.5991 16.1553 28.8664 15.4932C29.1336 14.6986 28.5991 14.169 28.5991 13.6393C28.5991 13.1096 29.1336 12.5799 28.8664 11.7854ZM22.9862 17.7443C20.7143 17.7443 18.977 15.8904 18.977 13.7717C18.977 11.653 20.8479 9.79909 22.9862 9.79909C25.1244 9.79909 26.9954 11.653 26.9954 13.7717C26.9954 15.8904 25.2581 17.7443 22.9862 17.7443ZM24.9908 13.6393C24.9908 14.6986 24.0553 15.6256 22.9862 15.6256C21.9171 15.6256 20.9816 14.6986 20.9816 13.6393C20.9816 12.5799 21.9171 11.653 22.9862 11.653C24.0553 11.653 24.9908 12.5799 24.9908 13.6393ZM24.7235 21.3196L24.0553 24.895L23.2535 29L20.5806 26.484L17.3733 27.9406L18.7097 20.3927C19.2442 20.6575 19.9124 20.79 20.5806 20.79C20.9816 21.0548 21.5161 21.3196 21.917 21.4521C22.1843 21.5845 22.5853 21.5845 22.9862 21.5845C23.6544 21.7169 24.1889 21.5845 24.7235 21.3196ZM29 24.4977L26.3272 23.5708L26.8618 20.6575L27.6636 20.2603L27.7972 20.1279L29 24.4977Z" fill="url(#paint0_linear_55_601)"/>
<defs>
<linearGradient id="paint0_linear_55_601" x1="14.5" y1="0" x2="14.5" y2="29" gradientUnits="userSpaceOnUse">
<stop stop-color="#FC2C68"/>
<stop offset="1" stop-color="#FA4B3F"/>
</linearGradient>
</defs>
</svg>
