<svg width="113" height="110" viewBox="0 0 113 110" fill="none" xmlns="http://www.w3.org/2000/svg">
<g filter="url(#filter0_d_679_334)">
<circle cx="56.5" cy="54.5" r="40.5" fill="url(#paint0_linear_679_334)"/>
<path d="M59 64.5C65.627 64.5 71 59.799 71 54C71 48.201 65.627 43.5 59 43.5C52.373 43.5 47 48.201 47 54C47 56.64 48.1145 59.055 49.955 60.9C49.8095 62.424 49.3295 64.095 48.7985 65.349C48.68 65.628 48.9095 65.94 49.208 65.892C52.592 65.337 54.6035 64.485 55.478 64.041C56.6269 64.3474 57.811 64.5017 59 64.5Z" fill="white"/>
<circle cx="56.5" cy="54.5" r="40.5" fill="url(#paint1_linear_679_334)"/>
<path d="M57 64.5C63.627 64.5 69 59.799 69 54C69 48.201 63.627 43.5 57 43.5C50.373 43.5 45 48.201 45 54C45 56.64 46.1145 59.055 47.955 60.9C47.8095 62.424 47.3295 64.095 46.7985 65.349C46.68 65.628 46.9095 65.94 47.208 65.892C50.592 65.337 52.6035 64.485 53.478 64.041C54.6269 64.3474 55.811 64.5017 57 64.5Z" fill="white"/>
</g>
<defs>
<filter id="filter0_d_679_334" x="-1.8" y="0.200001" width="116.6" height="116.6" filterUnits="userSpaceOnUse" color-interpolation-filters="sRGB">
<feFlood flood-opacity="0" result="BackgroundImageFix"/>
<feColorMatrix in="SourceAlpha" type="matrix" values="0 0 0 0 0 0 0 0 0 0 0 0 0 0 0 0 0 0 127 0" result="hardAlpha"/>
<feOffset dy="4"/>
<feGaussianBlur stdDeviation="8.9"/>
<feComposite in2="hardAlpha" operator="out"/>
<feColorMatrix type="matrix" values="0 0 0 0 0 0 0 0 0 0 0 0 0 0 0 0 0 0 0.15 0"/>
<feBlend mode="normal" in2="BackgroundImageFix" result="effect1_dropShadow_679_334"/>
<feBlend mode="normal" in="SourceGraphic" in2="effect1_dropShadow_679_334" result="shape"/>
</filter>
<linearGradient id="paint0_linear_679_334" x1="56.5" y1="14" x2="56.5" y2="95" gradientUnits="userSpaceOnUse">
<stop stop-color="#D9180A"/>
<stop offset="1" stop-color="#FC2F64"/>
</linearGradient>
<linearGradient id="paint1_linear_679_334" x1="56.5" y1="14" x2="56.5" y2="95" gradientUnits="userSpaceOnUse">
<stop stop-color="#D9180A"/>
<stop offset="1" stop-color="#FC2F64"/>
</linearGradient>
</defs>
</svg>
