<svg width="44" height="44" viewBox="0 0 44 44" fill="none" xmlns="http://www.w3.org/2000/svg">
<path d="M22.0129 43.2436C33.7356 43.2436 43.2387 33.7405 43.2387 22.0178C43.2387 10.2951 33.7356 0.791992 22.0129 0.791992C10.2902 0.791992 0.787109 10.2951 0.787109 22.0178C0.787109 33.7405 10.2902 43.2436 22.0129 43.2436Z" fill="#1E293B"/>
<path fill-rule="evenodd" clip-rule="evenodd" d="M22.1851 13.3467C22.0541 13.3176 21.9183 13.3176 21.7872 13.3467L14.1945 15.0343V22.5097C14.1945 23.7864 14.5501 25.038 15.2214 26.124C15.8926 27.2101 16.853 28.0877 17.995 28.6587L21.9862 30.6543L25.9773 28.6587C27.1193 28.0877 28.0797 27.2101 28.751 26.124C29.4222 25.038 29.7778 23.7864 29.7778 22.5097V15.0334L22.1851 13.3467ZM21.5892 12.452C21.851 12.3939 22.1223 12.3939 22.384 12.452L29.9767 14.1387C30.1805 14.184 30.3626 14.2974 30.4931 14.4603C30.6236 14.6231 30.6947 14.8256 30.6945 15.0343V22.5097C30.6944 23.9566 30.2913 25.375 29.5305 26.6057C28.7698 27.8365 27.6813 28.8312 26.3871 29.4782L22.1915 31.5774C22.1278 31.6093 22.0575 31.6259 21.9862 31.6259C21.9149 31.6259 21.8446 31.6093 21.7808 31.5774L17.5862 29.4773C16.2919 28.8304 15.2034 27.836 14.4424 26.6054C13.6815 25.3748 13.2782 23.9566 13.2778 22.5097V15.0334C13.2779 14.8248 13.349 14.6226 13.4795 14.4599C13.61 14.2972 13.792 14.1839 13.9956 14.1387L21.5883 12.452H21.5892Z" fill="white"/>
<path fill-rule="evenodd" clip-rule="evenodd" d="M26.8938 18.9255C26.9364 18.9681 26.9703 19.0186 26.9934 19.0743C27.0165 19.13 27.0284 19.1897 27.0284 19.25C27.0284 19.3103 27.0165 19.37 26.9934 19.4256C26.9703 19.4813 26.9364 19.5319 26.8938 19.5745L21.3938 25.0745C21.3512 25.1172 21.3006 25.151 21.2449 25.1741C21.1892 25.1972 21.1296 25.2091 21.0693 25.2091C21.009 25.2091 20.9493 25.1972 20.8936 25.1741C20.8379 25.151 20.7873 25.1172 20.7448 25.0745L17.9948 22.3245C17.9087 22.2384 17.8604 22.1217 17.8604 22C17.8604 21.8783 17.9087 21.7615 17.9948 21.6755C18.0808 21.5894 18.1976 21.5411 18.3193 21.5411C18.441 21.5411 18.5577 21.5894 18.6438 21.6755L21.0693 24.1019L26.2448 18.9255C26.2873 18.8828 26.3379 18.8489 26.3936 18.8258C26.4493 18.8027 26.509 18.7908 26.5693 18.7908C26.6296 18.7908 26.6892 18.8027 26.7449 18.8258C26.8006 18.8489 26.8512 18.8828 26.8938 18.9255Z" fill="white"/>
</svg>
