<svg width="45" height="45" viewBox="0 0 45 45" fill="none" xmlns="http://www.w3.org/2000/svg">
<g id="carousel-icon-01.svg" clip-path="url(#clip0_492_569)">
<g id="Group">
<path id="Vector" d="M22.0139 44.0273C34.1708 44.0273 44.0259 34.1722 44.0259 22.0154C44.0259 9.85851 34.1708 0.00341797 22.0139 0.00341797C9.85704 0.00341797 0.00195312 9.85851 0.00195312 22.0154C0.00195312 34.1722 9.85704 44.0273 22.0139 44.0273Z" fill="url(#paint0_linear_492_569)"/>
<path id="Vector_2" d="M22.0129 43.2397C33.7356 43.2397 43.2387 33.7366 43.2387 22.0139C43.2387 10.2912 33.7356 0.788086 22.0129 0.788086C10.2902 0.788086 0.787109 10.2912 0.787109 22.0139C0.787109 33.7366 10.2902 43.2397 22.0129 43.2397Z" fill="#FF6060"/>
<path id="Vector_3" opacity="0.079" d="M22.343 43.0947C34.0657 43.0947 43.5688 33.5916 43.5688 21.8689C43.5688 10.1462 34.0657 0.643066 22.343 0.643066C10.6203 0.643066 1.11719 10.1462 1.11719 21.8689C1.11719 33.5916 10.6203 43.0947 22.343 43.0947Z" fill="url(#paint1_radial_492_569)"/>
<path id="Vector_4" d="M32.1172 20.1079C32.1172 18.1289 30.2716 16.6291 28.3048 17.0563C28.6085 14.1793 26.326 11.6431 23.3992 11.6431C20.8433 11.6431 18.7226 13.603 18.4885 16.0914C16.2843 14.8807 13.5444 16.6744 13.8659 19.2269C12.8796 19.3611 12.1172 20.2029 12.1172 21.218C12.1172 22.3308 13.0254 23.2361 14.1418 23.2361H15.2331C15.1379 23.6941 15.0876 24.1684 15.0876 24.654C15.0876 28.4631 18.1913 31.6431 22.1173 31.6431C25.9864 31.6431 29.1472 28.5164 29.1472 24.654C29.1472 24.1678 29.0967 23.6931 29.0013 23.2346C30.7219 23.219 32.1172 21.8232 32.1172 20.1079ZM16.5307 21.2611L17.7378 22.4618C17.4024 23.122 17.2091 23.8652 17.2091 24.654C17.2091 25.441 17.4018 26.1825 17.7362 26.8414L16.5289 28.0422C15.9201 27.0534 15.5625 25.8958 15.5625 24.654C15.5625 23.4103 15.9207 22.251 16.5307 21.2611ZM18.3036 19.3617L19.4793 20.5336C18.9494 20.8704 18.3684 21.4197 17.9775 22.0321L16.798 20.8589C17.2227 20.2717 17.6964 19.796 18.3036 19.3617ZM26.257 27.2695L27.4385 28.4447C27.021 29.0222 26.512 29.5283 25.9311 29.9435L24.7499 28.7683C25.3608 28.3827 25.9096 27.8132 26.257 27.2695ZM22.1172 29.0602C19.6127 29.0602 17.6841 26.9878 17.6841 24.654C17.6841 22.2287 19.6686 20.2445 22.1172 20.2445C24.5402 20.2445 26.5474 22.2051 26.5474 24.654C26.5473 27.0947 24.5415 29.0602 22.1172 29.0602ZM19.4839 28.7689L18.3035 29.9435C17.7568 29.5527 17.2877 29.1247 16.796 28.4445L17.9769 27.2701C18.3433 27.8473 18.9428 28.4291 19.4839 28.7689ZM24.7499 20.5363L25.9307 19.3615C26.5108 19.7763 27.0192 20.2819 27.4364 20.8587L26.2562 22.0303C25.9132 21.4978 25.3419 20.9103 24.7499 20.5363ZM24.3185 20.2973C23.6556 19.9641 22.9093 19.772 22.1172 19.772C21.3243 19.772 20.5772 19.9643 19.9135 20.2978L18.7079 19.0961C19.7028 18.49 20.8676 18.1341 22.1172 18.1341C23.3667 18.1341 24.5315 18.4899 25.5262 19.0959L24.3185 20.2973ZM18.708 30.2091L19.9153 29.008C20.5785 29.3408 21.325 29.5327 22.1172 29.5327C22.9094 29.5327 23.6558 29.3407 24.3188 29.0076L25.5265 30.2091C24.5317 30.8149 23.3669 31.1706 22.1172 31.1706C20.8676 31.1706 19.7028 30.8149 18.708 30.2091ZM27.7057 28.0423L26.4965 26.8395C26.83 26.1811 27.0224 25.4403 27.0224 24.654C27.0224 23.8652 26.8291 23.122 26.494 22.4619L27.7038 21.2609C28.3139 22.2509 28.6722 23.4102 28.6722 24.6541C28.6721 25.8959 28.3146 27.0535 27.7057 28.0423ZM28.9724 22.7636H28.8839C28.0337 19.757 25.2728 17.6616 22.1172 17.6616C18.9378 17.6616 16.1944 19.7799 15.3507 22.7636H14.1417C13.2873 22.7636 12.5921 22.0703 12.5921 21.218C12.5921 20.3706 13.2873 19.6809 14.1417 19.6809C14.2908 19.6809 14.4032 19.5453 14.3749 19.3995C13.8859 16.9071 16.67 15.2957 18.5627 16.7001C18.7192 16.8155 18.9405 16.7055 18.9422 16.5125C18.9624 14.0881 20.9618 12.1155 23.3992 12.1155C26.1821 12.1155 28.2946 14.6556 27.7839 17.3365C27.7498 17.5147 27.923 17.6625 28.0934 17.6041C29.8852 17.0012 31.6422 18.3281 31.6422 20.1078C31.6422 21.5723 30.4445 22.7636 28.9724 22.7636Z" fill="white"/>
</g>
</g>
<defs>
<linearGradient id="paint0_linear_492_569" x1="2201.2" y1="4402.39" x2="2201.2" y2="0.00341797" gradientUnits="userSpaceOnUse">
<stop stop-color="#334155"/>
<stop offset="1" stop-color="#94A3B8" stop-opacity="0.601"/>
</linearGradient>
<radialGradient id="paint1_radial_492_569" cx="0" cy="0" r="1" gradientUnits="userSpaceOnUse" gradientTransform="translate(2070.38 2153.83) scale(1468.74)">
<stop stop-color="#F1F5F9"/>
<stop offset="1" stop-color="#F1F5F9" stop-opacity="0"/>
</radialGradient>
<clipPath id="clip0_492_569">
<rect width="44.0239" height="44.0239" fill="white"/>
</clipPath>
</defs>
</svg>
