<svg width="45" height="45" viewBox="0 0 45 45" fill="none" xmlns="http://www.w3.org/2000/svg">
<path d="M22.012 44.0239C34.1688 44.0239 44.0239 34.1688 44.0239 22.012C44.0239 9.85509 34.1688 0 22.012 0C9.85509 0 0 9.85509 0 22.012C0 34.1688 9.85509 44.0239 22.012 44.0239Z" fill="url(#paint0_linear_276_172)"/>
<path d="M22.011 43.2363C33.7337 43.2363 43.2368 33.7332 43.2368 22.0105C43.2368 10.2878 33.7337 0.784668 22.011 0.784668C10.2883 0.784668 0.785156 10.2878 0.785156 22.0105C0.785156 33.7332 10.2883 43.2363 22.011 43.2363Z" fill="#1E293B"/>
<path opacity="0.079" d="M22.011 43.2363C33.7337 43.2363 43.2368 33.7332 43.2368 22.0105C43.2368 10.2878 33.7337 0.784668 22.011 0.784668C10.2883 0.784668 0.785156 10.2878 0.785156 22.0105C0.785156 33.7332 10.2883 43.2363 22.011 43.2363Z" fill="url(#paint1_radial_276_172)"/>
<path d="M19.9989 15.0006L19.3181 15.3937L17.3512 11.9873L18.032 11.5942L19.9989 15.0006ZM11.4512 15.3937L12.132 15.0006L14.0989 18.4077L13.4181 18.8008L11.4512 15.3937ZM29.8335 18.8008L29.1527 18.4077L31.1196 15.0006L31.8004 15.3937L29.8335 18.8008ZM25.2189 11.5942L25.9004 11.9873L23.9335 15.3937L23.2527 15.0006L25.2189 11.5942ZM23.2535 29.0206L23.9343 28.6276L25.9012 32.0339L25.2204 32.427L23.2535 29.0206ZM31.8012 28.6276L31.1204 29.0206L29.1535 25.6135L29.8343 25.2204L31.8012 28.6276ZM13.4189 25.2204L14.0997 25.6135L12.1328 29.0206L11.452 28.6276L13.4189 25.2204ZM18.0335 32.427L17.3519 32.0339L19.3189 28.6276L19.9997 29.0206L18.0327 32.427H18.0335Z" fill="#475569"/>
<path d="M14.3789 17.0361V16.6611C14.2795 16.6611 14.1841 16.7006 14.1137 16.771C14.0434 16.8413 14.0039 16.9367 14.0039 17.0361H14.3789ZM27.8789 17.0361H28.2539C28.2539 16.9367 28.2144 16.8413 28.1441 16.771C28.0737 16.7006 27.9784 16.6611 27.8789 16.6611V17.0361ZM14.3789 17.4111H27.8789V16.6611H14.3789V17.4111ZM27.5039 17.0361V26.0361H28.2539V17.0361H27.5039ZM26.3789 27.1611H15.8789V27.9111H26.3789V27.1611ZM14.7539 26.0361V17.0361H14.0039V26.0361H14.7539ZM15.8789 27.1611C15.5805 27.1611 15.2944 27.0426 15.0834 26.8316C14.8724 26.6206 14.7539 26.3345 14.7539 26.0361H14.0039C14.0039 26.5334 14.2015 27.0103 14.5531 27.362C14.9047 27.7136 15.3816 27.9111 15.8789 27.9111V27.1611ZM27.5039 26.0361C27.5039 26.3345 27.3854 26.6206 27.1744 26.8316C26.9634 27.0426 26.6773 27.1611 26.3789 27.1611V27.9111C26.8762 27.9111 27.3531 27.7136 27.7047 27.362C28.0564 27.0103 28.2539 26.5334 28.2539 26.0361H27.5039Z" fill="white"/>
<path d="M14.3789 17.0361L21.1289 23.7861L27.8789 17.0361" stroke="white" stroke-linecap="round" stroke-linejoin="round"/>
<defs>
<linearGradient id="paint0_linear_276_172" x1="2201.2" y1="4402.39" x2="2201.2" y2="0" gradientUnits="userSpaceOnUse">
<stop stop-color="#334155"/>
<stop offset="1" stop-color="#94A3B8" stop-opacity="0.601"/>
</linearGradient>
<radialGradient id="paint1_radial_276_172" cx="0" cy="0" r="1" gradientUnits="userSpaceOnUse" gradientTransform="translate(2070.05 2153.97) scale(1468.74)">
<stop stop-color="#F1F5F9"/>
<stop offset="1" stop-color="#F1F5F9" stop-opacity="0"/>
</radialGradient>
</defs>
</svg>
