<svg width="20" height="20" viewBox="0 0 20 20" fill="none" xmlns="http://www.w3.org/2000/svg">
<g id="SVG" clip-path="url(#clip0_574_1943)">
<path id="Vector" d="M8.14931 2.59372L6.84028 3.08331C6.73611 3.1215 6.66667 3.2222 6.66667 3.33331C6.66667 3.44442 6.73611 3.54511 6.84028 3.58331L8.14931 4.07289L8.63889 5.38192C8.67708 5.48608 8.77778 5.55553 8.88889 5.55553C9 5.55553 9.1007 5.48608 9.13889 5.38192L9.62847 4.07289L10.9375 3.58331C11.0417 3.54511 11.1111 3.44442 11.1111 3.33331C11.1111 3.2222 11.0417 3.1215 10.9375 3.08331L9.62847 2.59372L9.13889 1.2847C9.1007 1.18053 9 1.11108 8.88889 1.11108C8.77778 1.11108 8.67708 1.18053 8.63889 1.2847L8.14931 2.59372ZM16.0208 2.77775L17.2222 3.97914L13.4097 7.78817L12.2083 6.58678L16.0208 2.77775ZM2.77778 16.0208L11.0313 7.76733L12.2326 8.96872L3.97917 17.2222L2.77778 16.0208ZM14.8403 1.60067L1.60069 14.8403C0.951389 15.4896 0.951389 16.5451 1.60069 17.1979L2.80208 18.3993C3.45139 19.0486 4.50695 19.0486 5.15972 18.3993L18.3993 5.15622C19.0486 4.50692 19.0486 3.45136 18.3993 2.79858L17.1979 1.60067C16.5486 0.951362 15.4931 0.951362 14.8403 1.60067ZM0.260417 5.18053C0.104167 5.23956 0 5.38886 0 5.55553C0 5.7222 0.104167 5.8715 0.260417 5.93053L2.22222 6.66664L2.95833 8.62845C3.01736 8.7847 3.16667 8.88886 3.33333 8.88886C3.5 8.88886 3.64931 8.7847 3.70833 8.62845L4.44444 6.66664L6.40625 5.93053C6.5625 5.8715 6.66667 5.7222 6.66667 5.55553C6.66667 5.38886 6.5625 5.23956 6.40625 5.18053L4.44444 4.44442L3.70833 2.48261C3.64931 2.32636 3.5 2.2222 3.33333 2.2222C3.16667 2.2222 3.01736 2.32636 2.95833 2.48261L2.22222 4.44442L0.260417 5.18053ZM12.4826 14.0694C12.3264 14.1284 12.2222 14.2778 12.2222 14.4444C12.2222 14.6111 12.3264 14.7604 12.4826 14.8194L14.4444 15.5555L15.1806 17.5173C15.2396 17.6736 15.3889 17.7778 15.5556 17.7778C15.7222 17.7778 15.8715 17.6736 15.9306 17.5173L16.6667 15.5555L18.6285 14.8194C18.7847 14.7604 18.8889 14.6111 18.8889 14.4444C18.8889 14.2778 18.7847 14.1284 18.6285 14.0694L16.6667 13.3333L15.9306 11.3715C15.8715 11.2153 15.7222 11.1111 15.5556 11.1111C15.3889 11.1111 15.2396 11.2153 15.1806 11.3715L14.4444 13.3333L12.4826 14.0694Z" fill="white"/>
</g>
<defs>
<clipPath id="clip0_574_1943">
<rect width="20" height="20" fill="white"/>
</clipPath>
</defs>
</svg>
