<svg width="45" height="45" viewBox="0 0 45 45" fill="none" xmlns="http://www.w3.org/2000/svg">
<g id="carousel-icon-04.svg" clip-path="url(#clip0_55_770)">
<g id="Group">
<path id="Vector" d="M22.0256 44.0296C34.1825 44.0296 44.0376 34.1746 44.0376 22.0177C44.0376 9.86082 34.1825 0.0057373 22.0256 0.0057373C9.86876 0.0057373 0.0136719 9.86082 0.0136719 22.0177C0.0136719 34.1746 9.86876 44.0296 22.0256 44.0296Z" fill="url(#paint0_linear_55_770)"/>
<path id="Vector_2" d="M22.0246 43.242C33.7473 43.242 43.2505 33.7389 43.2505 22.0162C43.2505 10.2935 33.7473 0.790405 22.0246 0.790405C10.3019 0.790405 0.798828 10.2935 0.798828 22.0162C0.798828 33.7389 10.3019 43.242 22.0246 43.242Z" fill="#A3A3A3"/>
<path id="Vector_3" opacity="0.079" d="M22.0246 43.242C33.7473 43.242 43.2505 33.7389 43.2505 22.0162C43.2505 10.2935 33.7473 0.790405 22.0246 0.790405C10.3019 0.790405 0.798828 10.2935 0.798828 22.0162C0.798828 33.7389 10.3019 43.242 22.0246 43.242Z" fill="url(#paint1_radial_55_770)"/>
<g id="Group 2494">
<path id="Vector_4" d="M15.0312 14.9803H25.5312C25.6676 14.9803 25.7812 15.094 25.7812 15.2303V17.4803C25.7812 17.6167 25.6676 17.7303 25.5312 17.7303H15.0312C14.8949 17.7303 14.7812 17.6167 14.7812 17.4803V15.2303C14.7812 15.094 14.8949 14.9803 15.0312 14.9803ZM15.0312 19.4803H25.5312C25.6676 19.4803 25.7812 19.594 25.7812 19.7303V21.9803C25.7812 22.1167 25.6676 22.2303 25.5312 22.2303H15.0312C14.8949 22.2303 14.7812 22.1167 14.7812 21.9803V19.7303C14.7812 19.594 14.8949 19.4803 15.0312 19.4803ZM15.0312 23.9803H25.5312C25.6676 23.9803 25.7812 24.094 25.7812 24.2303V26.4803C25.7812 26.6167 25.6676 26.7303 25.5312 26.7303H15.0312C14.8949 26.7303 14.7812 26.6167 14.7812 26.4803V24.2303C14.7812 24.094 14.8949 23.9803 15.0312 23.9803Z" stroke="#475569"/>
<g id="Group_2">
<path id="Vector_5" d="M28.625 27H30.875V34.5H28.625V27Z" fill="#232323"/>
<path id="Vector_6" d="M26 29.625H33.5V31.875H26V29.625Z" fill="#232323"/>
</g>
</g>
</g>
</g>
<defs>
<linearGradient id="paint0_linear_55_770" x1="2201.21" y1="4402.4" x2="2201.21" y2="0.0057373" gradientUnits="userSpaceOnUse">
<stop stop-color="#334155"/>
<stop offset="1" stop-color="#94A3B8" stop-opacity="0.601"/>
</linearGradient>
<radialGradient id="paint1_radial_55_770" cx="0" cy="0" r="1" gradientUnits="userSpaceOnUse" gradientTransform="translate(2070.06 2153.98) scale(1468.74)">
<stop stop-color="#F1F5F9"/>
<stop offset="1" stop-color="#F1F5F9" stop-opacity="0"/>
</radialGradient>
<clipPath id="clip0_55_770">
<rect width="44.0239" height="44.0239" fill="white" transform="translate(0.0136719)"/>
</clipPath>
</defs>
</svg>
