<svg width="45" height="45" viewBox="0 0 45 45" fill="none" xmlns="http://www.w3.org/2000/svg">
<g id="carousel-icon-01.svg" clip-path="url(#clip0_55_832)">
<g id="Group">
<path id="Vector" d="M22.8967 44.3843C35.0536 44.3843 44.9087 34.5292 44.9087 22.3723C44.9087 10.2154 35.0536 0.360352 22.8967 0.360352C10.7399 0.360352 0.884766 10.2154 0.884766 22.3723C0.884766 34.5292 10.7399 44.3843 22.8967 44.3843Z" fill="url(#paint0_linear_55_832)"/>
<path id="Vector_2" d="M22.8957 43.5966C34.6184 43.5966 44.1215 34.0935 44.1215 22.3708C44.1215 10.6481 34.6184 1.14502 22.8957 1.14502C11.173 1.14502 1.66992 10.6481 1.66992 22.3708C1.66992 34.0935 11.173 43.5966 22.8957 43.5966Z" fill="#FF6060"/>
<path id="Vector_3" opacity="0.079" d="M22.8957 43.5966C34.6184 43.5966 44.1215 34.0935 44.1215 22.3708C44.1215 10.6481 34.6184 1.14502 22.8957 1.14502C11.173 1.14502 1.66992 10.6481 1.66992 22.3708C1.66992 34.0935 11.173 43.5966 22.8957 43.5966Z" fill="url(#paint1_radial_55_832)"/>
<path id="Vector_4" d="M20.8837 15.3609L20.2029 15.754L18.2359 12.3477L18.9167 11.9546L20.8837 15.3609ZM12.3359 15.754L13.0167 15.3609L14.9837 18.7681L14.3029 19.1611L12.3359 15.754ZM30.7183 19.1611L30.0375 18.7681L32.0044 15.3609L32.6852 15.754L30.7183 19.1611ZM26.1036 11.9546L26.7852 12.3477L24.8183 15.754L24.1375 15.3609L26.1036 11.9546ZM24.1383 29.381L24.8191 28.9879L26.786 32.3943L26.1052 32.7873L24.1383 29.381ZM32.686 28.9879L32.0052 29.381L30.0383 25.9738L30.7191 25.5808L32.686 28.9879ZM14.3036 25.5808L14.9844 25.9738L13.0175 29.381L12.3367 28.9879L14.3036 25.5808ZM18.9183 32.7873L18.2367 32.3943L20.2036 28.9879L20.8844 29.381L18.9175 32.7873H18.9183Z" fill="white"/>
<path id="Vector_5" d="M20.7704 22.7647L19.0306 25.7779L20.7704 28.792H24.2506L25.9903 25.7779L24.2506 22.7647H20.7704ZM20.7704 21.9785H24.2506L25.9903 18.9652L24.2506 15.9512H20.7704L19.0306 18.9652L20.7704 21.9785ZM18.3491 18.5722L20.3168 15.165H24.7042L26.6711 18.5722H30.605L32.7983 22.3716L30.605 26.171H26.6711L24.7042 29.5782H20.3176L18.3506 26.171H14.4168L12.2227 22.3716L14.416 18.5722H18.3491ZM30.1506 25.3849L31.8911 22.3716L30.1506 19.3583H26.6711L24.9322 22.3716L26.6719 25.3849H30.1506ZM18.3498 25.3849L20.0896 22.3716L18.3498 19.3583H14.8696L13.1299 22.3716L14.8704 25.3849H18.3498Z" fill="white"/>
</g>
</g>
<defs>
<linearGradient id="paint0_linear_55_832" x1="2202.08" y1="4402.75" x2="2202.08" y2="0.360352" gradientUnits="userSpaceOnUse">
<stop stop-color="#334155"/>
<stop offset="1" stop-color="#94A3B8" stop-opacity="0.601"/>
</linearGradient>
<radialGradient id="paint1_radial_55_832" cx="0" cy="0" r="1" gradientUnits="userSpaceOnUse" gradientTransform="translate(2070.93 2154.33) scale(1468.74)">
<stop stop-color="#F1F5F9"/>
<stop offset="1" stop-color="#F1F5F9" stop-opacity="0"/>
</radialGradient>
<clipPath id="clip0_55_832">
<rect width="44.0239" height="44.0239" fill="white" transform="translate(0.882812 0.356934)"/>
</clipPath>
</defs>
</svg>
