<svg width="45" height="45" viewBox="0 0 45 45" fill="none" xmlns="http://www.w3.org/2000/svg">
<g id="carousel-icon-04.svg" clip-path="url(#clip0_55_750)">
<g id="Group">
<path id="Vector" d="M22.758 44.8227C34.9149 44.8227 44.77 34.9676 44.77 22.8108C44.77 10.6539 34.9149 0.798828 22.758 0.798828C10.6012 0.798828 0.746094 10.6539 0.746094 22.8108C0.746094 34.9676 10.6012 44.8227 22.758 44.8227Z" fill="url(#paint0_linear_55_750)"/>
<path id="Vector_2" d="M22.7571 44.0351C34.4798 44.0351 43.9829 34.532 43.9829 22.8093C43.9829 11.0866 34.4798 1.5835 22.7571 1.5835C11.0344 1.5835 1.53125 11.0866 1.53125 22.8093C1.53125 34.532 11.0344 44.0351 22.7571 44.0351Z" fill="#1E293B"/>
<path id="Vector_3" opacity="0.079" d="M22.7571 44.0351C34.4798 44.0351 43.9829 34.532 43.9829 22.8093C43.9829 11.0866 34.4798 1.5835 22.7571 1.5835C11.0344 1.5835 1.53125 11.0866 1.53125 22.8093C1.53125 34.532 11.0344 44.0351 22.7571 44.0351Z" fill="url(#paint1_radial_55_750)"/>
<g id="Group_2">
<path id="Vector_4" d="M17.3752 13.7L13.88 17.1952L13.3242 16.6394L17.3752 12.5884L21.427 16.6394L20.8712 17.1952L17.3752 13.7ZM17.0977 20.9686L17.6535 20.4128L21.427 24.1863L20.8712 24.7429L17.0977 20.9686ZM24.6447 20.9686L25.2005 20.4128L28.9739 24.1863L28.4181 24.7429L24.6447 20.9686ZM32.1916 27.9606L32.7474 28.5164L28.6964 32.5674L24.6447 28.5164L25.2005 27.9606L28.6964 31.4558L32.1916 27.9606Z" fill="#475569"/>
<path id="Vector_5" d="M24.4153 13.7L13.0949 25.0204L12.5391 24.4646L24.4153 12.5884L28.7446 16.9177L28.1888 17.4735L24.4153 13.7ZM31.4906 20.607L32.0472 21.1628L20.6418 32.5674L16.3125 28.2381L16.8683 27.6823L20.6418 31.4558L31.4906 20.607Z" fill="white"/>
</g>
</g>
</g>
<defs>
<linearGradient id="paint0_linear_55_750" x1="2201.94" y1="4403.19" x2="2201.94" y2="0.798828" gradientUnits="userSpaceOnUse">
<stop stop-color="#334155"/>
<stop offset="1" stop-color="#94A3B8" stop-opacity="0.601"/>
</linearGradient>
<radialGradient id="paint1_radial_55_750" cx="0" cy="0" r="1" gradientUnits="userSpaceOnUse" gradientTransform="translate(2070.79 2154.77) scale(1468.74)">
<stop stop-color="#F1F5F9"/>
<stop offset="1" stop-color="#F1F5F9" stop-opacity="0"/>
</radialGradient>
<clipPath id="clip0_55_750">
<rect width="44.0239" height="44.0239" fill="white" transform="translate(0.746094 0.792969)"/>
</clipPath>
</defs>
</svg>
