<svg width="45" height="45" viewBox="0 0 45 45" fill="none" xmlns="http://www.w3.org/2000/svg">
<g id="carousel-icon-04.svg" clip-path="url(#clip0_55_792)">
<g id="Group">
<path id="Vector" d="M22.0256 44.0296C34.1825 44.0296 44.0376 34.1746 44.0376 22.0177C44.0376 9.86082 34.1825 0.0057373 22.0256 0.0057373C9.86876 0.0057373 0.0136719 9.86082 0.0136719 22.0177C0.0136719 34.1746 9.86876 44.0296 22.0256 44.0296Z" fill="url(#paint0_linear_55_792)"/>
<path id="Vector_2" d="M22.0246 43.242C33.7473 43.242 43.2505 33.7389 43.2505 22.0162C43.2505 10.2935 33.7473 0.790405 22.0246 0.790405C10.3019 0.790405 0.798828 10.2935 0.798828 22.0162C0.798828 33.7389 10.3019 43.242 22.0246 43.242Z" fill="black"/>
<path id="Vector_3" opacity="0.079" d="M22.0246 43.242C33.7473 43.242 43.2505 33.7389 43.2505 22.0162C43.2505 10.2935 33.7473 0.790405 22.0246 0.790405C10.3019 0.790405 0.798828 10.2935 0.798828 22.0162C0.798828 33.7389 10.3019 43.242 22.0246 43.242Z" fill="url(#paint1_radial_55_792)"/>
<path id="Vector_4" d="M18.8113 15.5142C19.2567 14.7383 19.9494 14.1342 20.7786 13.7983C21.6079 13.4624 22.5258 13.4143 23.3856 13.6615C24.2454 13.9087 24.9976 14.4371 25.5218 15.1621C26.0459 15.8871 26.3119 16.767 26.2772 17.661C26.2425 18.555 25.9091 19.4115 25.3302 20.0937C24.7514 20.7759 23.9606 21.2443 23.0841 21.4241C22.2077 21.6039 21.2963 21.4847 20.4956 21.0856C19.6949 20.6864 19.0512 20.0303 18.6673 19.2222C18.4107 19.4099 18.1011 19.5108 17.7832 19.5102H17.2832V19.7652C17.2832 19.9552 17.3552 20.1282 17.4732 20.2592C17.5741 20.1452 17.7073 20.0647 17.855 20.0282C18.0028 19.9918 18.1581 20.0013 18.3004 20.0554C18.4427 20.1095 18.5651 20.2056 18.6513 20.331C18.7376 20.4563 18.7836 20.605 18.7832 20.7572C18.7832 20.8617 18.7613 20.9651 18.7189 21.0606C18.6765 21.1562 18.6147 21.2418 18.5373 21.3121C18.4599 21.3823 18.3687 21.4356 18.2695 21.4685C18.1703 21.5014 18.0653 21.5133 17.9612 21.5032C17.5109 21.4874 17.0842 21.2974 16.7712 20.9732C16.4582 20.649 16.2832 20.2159 16.2832 19.7652V16.0132C16.2832 15.8806 16.3359 15.7534 16.4297 15.6597C16.5235 15.5659 16.6506 15.5132 16.7832 15.5132H18.7832L18.8113 15.5142ZM19.2832 17.6252C19.3144 18.4099 19.652 19.1512 20.2236 19.6897C20.7952 20.2283 21.5552 20.5212 22.3404 20.5056C23.1256 20.4901 23.8734 20.1672 24.4231 19.6064C24.9729 19.0456 25.2809 18.2916 25.2809 17.5062C25.2809 16.7209 24.9729 15.9669 24.4231 15.406C23.8734 14.8452 23.1256 14.5224 22.3404 14.5068C21.5552 14.4912 20.7952 14.7842 20.2236 15.3227C19.652 15.8613 19.3144 16.6025 19.2832 17.3872V17.6252ZM18.2832 17.3682V16.5132H17.2832V18.5102H17.7832C17.9159 18.5102 18.043 18.4575 18.1368 18.3638C18.2306 18.27 18.2832 18.1428 18.2832 18.0102V17.6442C18.2801 17.5523 18.2801 17.4602 18.2832 17.3682ZM15.2812 24.5062C15.2812 23.3932 16.1842 22.5062 17.2902 22.5062H27.2812C27.8117 22.5062 28.3204 22.7169 28.6955 23.092C29.0705 23.4671 29.2812 23.9758 29.2812 24.5062C29.2812 26.1972 28.4482 27.4722 27.1462 28.3032C25.8643 29.1202 24.1362 29.5062 22.2812 29.5062C20.4262 29.5062 18.6983 29.1202 17.4163 28.3032C16.1143 27.4732 15.2812 26.1962 15.2812 24.5062ZM17.2902 23.5062C16.7292 23.5062 16.2812 23.9532 16.2812 24.5062C16.2812 25.8152 16.9032 26.7902 17.9542 27.4592C19.0243 28.1422 20.5462 28.5062 22.2812 28.5062C24.0162 28.5062 25.5382 28.1422 26.6082 27.4592C27.6582 26.7892 28.2812 25.8162 28.2812 24.5062C28.2812 24.241 28.1759 23.9867 27.9884 23.7991C27.8008 23.6116 27.5465 23.5062 27.2812 23.5062H17.2902Z" fill="white"/>
</g>
</g>
<defs>
<linearGradient id="paint0_linear_55_792" x1="2201.21" y1="4402.4" x2="2201.21" y2="0.0057373" gradientUnits="userSpaceOnUse">
<stop stop-color="#334155"/>
<stop offset="1" stop-color="#94A3B8" stop-opacity="0.601"/>
</linearGradient>
<radialGradient id="paint1_radial_55_792" cx="0" cy="0" r="1" gradientUnits="userSpaceOnUse" gradientTransform="translate(2070.06 2153.98) scale(1468.74)">
<stop stop-color="#F1F5F9"/>
<stop offset="1" stop-color="#F1F5F9" stop-opacity="0"/>
</radialGradient>
<clipPath id="clip0_55_792">
<rect width="44.0239" height="44.0239" fill="white" transform="translate(0.0136719)"/>
</clipPath>
</defs>
</svg>
