<svg width="45" height="45" viewBox="0 0 45 45" fill="none" xmlns="http://www.w3.org/2000/svg">
<g id="carousel-icon-05.svg" clip-path="url(#clip0_55_871)">
<g id="Group">
<path id="Vector" d="M22.0256 44.0285C34.1825 44.0285 44.0376 34.1735 44.0376 22.0166C44.0376 9.85973 34.1825 0.00463867 22.0256 0.00463867C9.86876 0.00463867 0.0136719 9.85973 0.0136719 22.0166C0.0136719 34.1735 9.86876 44.0285 22.0256 44.0285Z" fill="url(#paint0_linear_55_871)"/>
<path id="Vector_2" d="M22.0246 43.2409C33.7473 43.2409 43.2505 33.7378 43.2505 22.0151C43.2505 10.2924 33.7473 0.789307 22.0246 0.789307C10.3019 0.789307 0.798828 10.2924 0.798828 22.0151C0.798828 33.7378 10.3019 43.2409 22.0246 43.2409Z" fill="#1E293B"/>
<path id="Vector_3" opacity="0.079" d="M22.0246 43.2409C33.7473 43.2409 43.2505 33.7378 43.2505 22.0151C43.2505 10.2924 33.7473 0.789307 22.0246 0.789307C10.3019 0.789307 0.798828 10.2924 0.798828 22.0151C0.798828 33.7378 10.3019 43.2409 22.0246 43.2409Z" fill="url(#paint1_radial_55_871)"/>
<path id="Vector_4" d="M11.9395 24.8487C11.9395 25.4396 12.0558 26.0248 12.282 26.5708C12.5081 27.1167 12.8396 27.6128 13.2575 28.0307C14.1014 28.8746 15.246 29.3487 16.4395 29.3487H28.4395C29.3254 29.3503 30.179 29.0158 30.8281 28.4128C31.4771 27.8098 31.8733 26.983 31.9368 26.0993C32.0002 25.2156 31.7262 24.3408 31.1699 23.6512C30.6136 22.9616 29.8166 22.5087 28.9395 22.3837C28.9492 20.6825 28.3391 19.0359 27.2231 17.7518C26.1072 16.4677 24.5618 15.6339 22.8758 15.4064C21.1898 15.1789 19.4787 15.5731 18.0622 16.5155C16.6458 17.4578 15.621 18.8837 15.1795 20.5267C14.2446 20.7997 13.4234 21.3685 12.8393 22.1478C12.2551 22.9271 11.9393 23.8748 11.9395 24.8487Z" stroke="#FFF8F8" stroke-linejoin="round"/>
</g>
<path id="Vector_5" d="M20.6052 19.98L20.4839 19.77L20.3627 19.98L18.6873 22.8826L18.6468 22.9527L18.6873 23.0227L19.3016 24.0836L19.4229 24.2931L19.544 24.0834L21.2187 21.1826L21.2592 21.1126L21.2187 21.0426L20.6052 19.98ZM19.9077 24.2934L19.7864 24.5034H20.0289H23.3777H23.4586L23.499 24.4334L24.1119 23.3715L24.233 23.1615H23.9906H20.6425H20.5617L20.5213 23.2315L19.9077 24.2934ZM23.9889 22.7415H24.2313L24.1101 22.5315L22.435 19.63L22.3946 19.56H22.3137H21.0905H20.848L20.9693 19.77L22.6447 22.6715L22.6851 22.7415H22.7659H23.9889ZM21.623 21.7426L21.5018 21.5326L21.3805 21.7426L20.9248 22.5315L20.8035 22.7415H21.0461H21.9571H22.1996L22.0784 22.5315L21.623 21.7426ZM20.3628 19.14H22.6372L24.8384 22.9529L23.7012 24.9234H19.3022L18.1617 22.9528L20.3628 19.14Z" stroke="white" stroke-width="0.28"/>
</g>
<defs>
<linearGradient id="paint0_linear_55_871" x1="2201.21" y1="4402.4" x2="2201.21" y2="0.00463867" gradientUnits="userSpaceOnUse">
<stop stop-color="#334155"/>
<stop offset="1" stop-color="#94A3B8" stop-opacity="0.601"/>
</linearGradient>
<radialGradient id="paint1_radial_55_871" cx="0" cy="0" r="1" gradientUnits="userSpaceOnUse" gradientTransform="translate(2070.06 2153.98) scale(1468.74)">
<stop stop-color="#F1F5F9"/>
<stop offset="1" stop-color="#F1F5F9" stop-opacity="0"/>
</radialGradient>
<clipPath id="clip0_55_871">
<rect width="44.0239" height="44.0239" fill="white" transform="translate(0.0136719)"/>
</clipPath>
</defs>
</svg>
