<svg width="45" height="45" viewBox="0 0 45 45" fill="none" xmlns="http://www.w3.org/2000/svg">
<g id="carousel-icon-05.svg" clip-path="url(#clip0_55_888)">
<g id="Group">
<path id="Vector" d="M22.0295 44.0283C34.1864 44.0283 44.0415 34.1732 44.0415 22.0163C44.0415 9.85948 34.1864 0.00439453 22.0295 0.00439453C9.87267 0.00439453 0.0175781 9.85948 0.0175781 22.0163C0.0175781 34.1732 9.87267 44.0283 22.0295 44.0283Z" fill="url(#paint0_linear_55_888)"/>
<path id="Vector_2" d="M22.0285 43.2407C33.7512 43.2407 43.2544 33.7376 43.2544 22.0149C43.2544 10.2922 33.7512 0.789062 22.0285 0.789062C10.3059 0.789062 0.802734 10.2922 0.802734 22.0149C0.802734 33.7376 10.3059 43.2407 22.0285 43.2407Z" fill="white"/>
<path id="Vector_3" opacity="0.079" d="M22.0285 43.2407C33.7512 43.2407 43.2544 33.7376 43.2544 22.0149C43.2544 10.2922 33.7512 0.789062 22.0285 0.789062C10.3059 0.789062 0.802734 10.2922 0.802734 22.0149C0.802734 33.7376 10.3059 43.2407 22.0285 43.2407Z" fill="url(#paint1_radial_55_888)"/>
</g>
<path id="Vector_4" d="M11.8867 24.4988C11.8867 25.0898 12.0031 25.675 12.2293 26.2209C12.4554 26.7669 12.7869 27.263 13.2047 27.6808C14.0487 28.5247 15.1932 28.9988 16.3867 28.9988H28.3867C29.2727 29.0004 30.1263 28.666 30.7753 28.0629C31.4244 27.4599 31.8206 26.6332 31.884 25.7495C31.9475 24.8658 31.6734 23.9909 31.1172 23.3013C30.5609 22.6118 29.7638 22.1588 28.8867 22.0338C28.8965 20.3326 28.2864 18.686 27.1704 17.4019C26.0544 16.1178 24.509 15.2841 22.823 15.0566C21.1371 14.829 19.4259 15.2233 18.0095 16.1656C16.5931 17.108 15.5683 18.5339 15.1267 20.1768C14.1918 20.4499 13.3707 21.0187 12.7865 21.7979C12.2023 22.5772 11.8866 23.5249 11.8867 24.4988Z" stroke="#979797" stroke-linejoin="round"/>
</g>
<defs>
<linearGradient id="paint0_linear_55_888" x1="2201.21" y1="4402.4" x2="2201.21" y2="0.00439453" gradientUnits="userSpaceOnUse">
<stop stop-color="#334155"/>
<stop offset="1" stop-color="#94A3B8" stop-opacity="0.601"/>
</linearGradient>
<radialGradient id="paint1_radial_55_888" cx="0" cy="0" r="1" gradientUnits="userSpaceOnUse" gradientTransform="translate(2070.06 2153.98) scale(1468.74)">
<stop stop-color="#F1F5F9"/>
<stop offset="1" stop-color="#F1F5F9" stop-opacity="0"/>
</radialGradient>
<clipPath id="clip0_55_888">
<rect width="44.0239" height="44.0239" fill="white" transform="translate(0.0136719)"/>
</clipPath>
</defs>
</svg>
