<svg width="45" height="45" viewBox="0 0 45 45" fill="none" xmlns="http://www.w3.org/2000/svg">
<g id="carousel-icon-05.svg" clip-path="url(#clip0_55_853)">
<g id="Group">
<path id="Vector" d="M22.0295 44.0277C34.1864 44.0277 44.0415 34.1726 44.0415 22.0157C44.0415 9.85887 34.1864 0.00378418 22.0295 0.00378418C9.87267 0.00378418 0.0175781 9.85887 0.0175781 22.0157C0.0175781 34.1726 9.87267 44.0277 22.0295 44.0277Z" fill="url(#paint0_linear_55_853)"/>
<path id="Vector_2" d="M22.0285 43.2401C33.7512 43.2401 43.2544 33.737 43.2544 22.0143C43.2544 10.2916 33.7512 0.788452 22.0285 0.788452C10.3059 0.788452 0.802734 10.2916 0.802734 22.0143C0.802734 33.737 10.3059 43.2401 22.0285 43.2401Z" fill="#1E293B"/>
<path id="Vector_3" opacity="0.079" d="M22.0285 43.2401C33.7512 43.2401 43.2544 33.737 43.2544 22.0143C43.2544 10.2916 33.7512 0.788452 22.0285 0.788452C10.3059 0.788452 0.802734 10.2916 0.802734 22.0143C0.802734 33.737 10.3059 43.2401 22.0285 43.2401Z" fill="url(#paint1_radial_55_853)"/>
<path id="Vector_4" d="M14.5606 15.3345C14.3521 15.3345 14.1521 15.4173 14.0047 15.5647C13.8572 15.7122 13.7744 15.9121 13.7744 16.1206V27.9127C13.7744 28.1212 13.8572 28.3212 14.0047 28.4686C14.1521 28.6161 14.3521 28.6989 14.5606 28.6989H19.2774C19.4859 28.6989 19.6859 28.6161 19.8333 28.4686C19.9807 28.3212 20.0636 28.1212 20.0636 27.9127V16.1206C20.0636 15.9121 19.9807 15.7122 19.8333 15.5647C19.6859 15.4173 19.4859 15.3345 19.2774 15.3345H14.5606ZM14.5606 14.5483H19.2774C19.6944 14.5483 20.0943 14.714 20.3892 15.0089C20.684 15.3037 20.8497 15.7036 20.8497 16.1206V27.9127C20.8497 28.3297 20.684 28.7297 20.3892 29.0245C20.0943 29.3194 19.6944 29.485 19.2774 29.485H14.5606C14.1436 29.485 13.7437 29.3194 13.4488 29.0245C13.1539 28.7297 12.9883 28.3297 12.9883 27.9127V16.1206C12.9883 15.7036 13.1539 15.3037 13.4488 15.0089C13.7437 14.714 14.1436 14.5483 14.5606 14.5483Z" fill="white"/>
<path id="Vector_5" d="M25.5674 14.5482V15.3344H24.7813C24.5728 15.3344 24.3728 15.4172 24.2254 15.5646C24.078 15.712 23.9951 15.912 23.9951 16.1205V16.9066H23.209V16.1205C23.209 15.7035 23.3746 15.3036 23.6695 15.0087C23.9644 14.7139 24.3643 14.5482 24.7813 14.5482H25.5674ZM28.712 15.3344V14.5482H29.4981C29.9151 14.5482 30.315 14.7139 30.6099 15.0087C30.9047 15.3036 31.0704 15.7035 31.0704 16.1205V16.9066H30.2843V16.1205C30.2843 15.912 30.2014 15.712 30.054 15.5646C29.9066 15.4172 29.7066 15.3344 29.4981 15.3344H28.712ZM28.712 29.4849V28.6988H29.4981C29.7066 28.6988 29.9066 28.6159 30.054 28.4685C30.2014 28.3211 30.2843 28.1211 30.2843 27.9126V27.1265H31.0704V27.9126C31.0704 28.3296 30.9047 28.7295 30.6099 29.0244C30.315 29.3193 29.9151 29.4849 29.4981 29.4849H28.712ZM25.5674 28.6988V29.4849H24.7813C24.3643 29.4849 23.9644 29.3193 23.6695 29.0244C23.3746 28.7295 23.209 28.3296 23.209 27.9126V27.1265H23.9951V27.9126C23.9951 28.1211 24.078 28.3211 24.2254 28.4685C24.3728 28.6159 24.5728 28.6988 24.7813 28.6988H25.5674ZM23.209 19.2651H23.9951V20.8373H23.209V19.2651ZM30.2843 19.2651H31.0704V20.8373H30.2843V19.2651ZM23.209 23.1958H23.9951V24.7681H23.209V23.1958ZM30.2843 23.1958H31.0704V24.7681H30.2843V23.1958Z" fill="#475569"/>
</g>
</g>
<defs>
<linearGradient id="paint0_linear_55_853" x1="2201.21" y1="4402.39" x2="2201.21" y2="0.00378418" gradientUnits="userSpaceOnUse">
<stop stop-color="#334155"/>
<stop offset="1" stop-color="#94A3B8" stop-opacity="0.601"/>
</linearGradient>
<radialGradient id="paint1_radial_55_853" cx="0" cy="0" r="1" gradientUnits="userSpaceOnUse" gradientTransform="translate(2070.06 2153.98) scale(1468.74)">
<stop stop-color="#F1F5F9"/>
<stop offset="1" stop-color="#F1F5F9" stop-opacity="0"/>
</radialGradient>
<clipPath id="clip0_55_853">
<rect width="44.0239" height="44.0239" fill="white" transform="translate(0.0136719)"/>
</clipPath>
</defs>
</svg>
