<svg width="19" height="18" viewBox="0 0 19 18" fill="none" xmlns="http://www.w3.org/2000/svg">
<g id="iconamoon:email-thin">
<g id="Group">
<path id="Vector" d="M2.39453 3.75V3.375C2.29508 3.375 2.19969 3.41451 2.12937 3.48484C2.05904 3.55516 2.01953 3.65054 2.01953 3.75H2.39453ZM15.8945 3.75H16.2695C16.2695 3.65054 16.23 3.55516 16.1597 3.48484C16.0894 3.41451 15.994 3.375 15.8945 3.375V3.75ZM2.39453 4.125H15.8945V3.375H2.39453V4.125ZM15.5195 3.75V12.75H16.2695V3.75H15.5195ZM14.3945 13.875H3.89453V14.625H14.3945V13.875ZM2.76953 12.75V3.75H2.01953V12.75H2.76953ZM3.89453 13.875C3.59616 13.875 3.31001 13.7565 3.09904 13.5455C2.88806 13.3345 2.76953 13.0484 2.76953 12.75H2.01953C2.01953 13.2473 2.21708 13.7242 2.56871 14.0758C2.92034 14.4275 3.39725 14.625 3.89453 14.625V13.875ZM15.5195 12.75C15.5195 13.0484 15.401 13.3345 15.19 13.5455C14.979 13.7565 14.6929 13.875 14.3945 13.875V14.625C14.8918 14.625 15.3687 14.4275 15.7204 14.0758C16.072 13.7242 16.2695 13.2473 16.2695 12.75H15.5195Z" fill="white"/>
<path id="Vector_2" d="M2.39453 3.75L9.14453 10.5L15.8945 3.75" stroke="white" stroke-linecap="round" stroke-linejoin="round"/>
</g>
</g>
</svg>
