<svg width="28" height="27" viewBox="0 0 28 27" fill="none" xmlns="http://www.w3.org/2000/svg">
<g id="guidance:24-hours">
<path id="Vector" d="M6.5 12.5V12.25C6.5 11.7859 6.68437 11.3408 7.01256 11.0126C7.34075 10.6844 7.78587 10.5 8.25 10.5C8.71413 10.5 9.15925 10.6844 9.48744 11.0126C9.81563 11.3408 10 11.7859 10 12.25V12.34C10 12.767 9.852 13.18 9.58 13.51L6.5 17.25V17.5H10.5M15.5 15.5H11.5V15.25C12.4781 13.7829 13 12.0592 13 10.296V10M15.5 15.5V12M15.5 15.5V18M18 10V14.75M18 14.75C18 14.2859 18.1844 13.8408 18.5126 13.5126C18.8408 13.1844 19.2859 13 19.75 13C20.2141 13 20.6592 13.1844 20.9874 13.5126C21.3156 13.8408 21.5 14.2859 21.5 14.75V18M18 14.75V18M14 25.5C7.649 25.5 2.5 20.351 2.5 14C2.5 7.649 7.649 2.5 14 2.5C20.351 2.5 25.5 7.649 25.5 14C25.5 20.351 20.351 25.5 14 25.5Z" stroke="#FA4742" stroke-width="2"/>
</g>
</svg>
