<svg width="16" height="14" viewBox="0 0 16 14" fill="none" xmlns="http://www.w3.org/2000/svg">
<g id="Link - Glide on twitter &#226;&#134;&#146; SVG" clip-path="url(#clip0_55_957)">
<path id="Vector" d="M13.9108 3.36141C14.5143 2.90875 15.0576 2.36557 15.48 1.73185C14.9368 1.97326 14.3031 2.15433 13.6694 2.21468C14.3333 1.82238 14.8162 1.21884 15.0576 0.464413C14.454 0.826538 13.76 1.09813 13.0658 1.24901C12.4623 0.615298 11.6476 0.253174 10.7422 0.253174C8.99197 0.253174 7.57365 1.6715 7.57365 3.42176C7.57365 3.66318 7.60383 3.90459 7.66418 4.14601C5.03878 3.99513 2.68497 2.72769 1.11577 0.826538C0.844169 1.2792 0.693288 1.82238 0.693288 2.42592C0.693288 3.51229 1.23648 4.47796 2.11161 5.05132C1.5986 5.02115 1.08559 4.90044 0.663111 4.65902V4.6892C0.663111 6.22823 1.74948 7.49566 3.19798 7.79744C2.95657 7.85778 2.6548 7.91811 2.3832 7.91811C2.17197 7.91811 1.9909 7.88798 1.77966 7.85778C2.17197 9.12519 3.34887 10.0305 4.73701 10.0607C3.65064 10.9056 2.29267 11.4187 0.813996 11.4187C0.542403 11.4187 0.300987 11.3885 0.0595703 11.3584C1.44772 12.2636 3.10745 12.7766 4.91807 12.7766C10.7422 12.7766 13.9108 7.97852 13.9108 3.78389C13.9108 3.633 13.9108 3.51229 13.9108 3.36141Z" fill="white"/>
</g>
<defs>
<clipPath id="clip0_55_957">
<rect width="15.4506" height="13.133" fill="white" transform="translate(0.0185547 0.158447)"/>
</clipPath>
</defs>
</svg>
