<svg width="14" height="16" viewBox="0 0 14 16" fill="none" xmlns="http://www.w3.org/2000/svg">
<g id="Link - Glide on linkedin &#226;&#134;&#146; SVG" clip-path="url(#clip0_55_961)">
<path id="Vector" d="M12.6054 0.739502H0.987248C0.474236 0.739502 0.0517578 1.19216 0.0517578 1.73534V13.2931C0.0517578 13.8363 0.474236 14.2588 0.987248 14.2588H12.6054C13.1184 14.2588 13.5711 13.8363 13.5711 13.2931V1.73534C13.5711 1.19216 13.1184 0.739502 12.6054 0.739502ZM4.12566 12.3275H2.13397V5.89978H4.12566V12.3275ZM3.12982 4.99446C2.46592 4.99446 1.95291 4.48145 1.95291 3.84774C1.95291 3.21402 2.46592 2.67083 3.12982 2.67083C3.76354 2.67083 4.27654 3.21402 4.27654 3.84774C4.27654 4.48145 3.76354 4.99446 3.12982 4.99446ZM11.6397 12.3275H9.61787V9.18907C9.61787 8.46482 9.61787 7.49916 8.59187 7.49916C7.53566 7.49916 7.38478 8.31395 7.38478 9.15887V12.3275H5.39309V5.89978H7.29425V6.77491H7.32442C7.59601 6.2619 8.25991 5.71871 9.22558 5.71871C11.2474 5.71871 11.6397 7.07668 11.6397 8.79678V12.3275Z" fill="white"/>
</g>
<defs>
<clipPath id="clip0_55_961">
<rect width="13.9056" height="14.6781" fill="white" transform="translate(0.0107422 0.385986)"/>
</clipPath>
</defs>
</svg>
