<svg width="16" height="17" viewBox="0 0 16 17" fill="none" xmlns="http://www.w3.org/2000/svg">
<g id="linkedin 1" clip-path="url(#clip0_119_161)">
<g id="Symbols">
<g id="Navigation/Footer">
<g id="Group-5">
<g id="Group-4">
<path id="Shape" fill-rule="evenodd" clip-rule="evenodd" d="M13.6593 2.5647H3.72145C2.93707 2.5647 2.30176 3.20001 2.30176 3.98439V13.9222C2.30176 14.7066 2.93707 15.3419 3.72145 15.3419H13.6593C14.4436 15.3419 15.079 14.7066 15.079 13.9222V3.98439C15.079 3.20001 14.4436 2.5647 13.6593 2.5647ZM5.665 12.5025C5.17024 12.5025 4.76918 12.1015 4.76918 11.6067V8.42872C4.76989 7.93467 5.17095 7.53361 5.665 7.53361C6.15976 7.53361 6.56083 7.93467 6.56083 8.42943V11.6074C6.56083 12.1015 6.15976 12.5025 5.665 12.5025ZM5.63377 6.62288C5.08648 6.62288 4.72091 6.25802 4.72091 5.77107C4.72091 5.28411 5.08577 4.91925 5.69411 4.91925C6.2414 4.91925 6.60697 5.28411 6.60697 5.77107C6.60697 6.25802 6.24211 6.62288 5.63377 6.62288ZM12.0827 12.5025C11.6043 12.5025 11.216 12.1142 11.216 11.6358V9.78666C11.216 9.03564 10.7539 8.9533 10.5807 8.9533C10.4075 8.9533 9.82966 8.97814 9.82966 9.78666V11.6358C9.82966 12.1142 9.44138 12.5025 8.96294 12.5025H8.90544C8.42701 12.5025 8.03872 12.1142 8.03872 11.6358V8.42943C8.03872 7.93467 8.43978 7.53361 8.93455 7.53361C9.42931 7.53361 9.83037 7.93467 9.83037 8.42943C9.83037 8.42943 10.0305 7.53361 11.3906 7.53361C12.2559 7.53361 12.9494 8.22713 12.9494 9.78666V11.6358C12.9494 12.1142 12.5611 12.5025 12.0827 12.5025Z" fill="#8E969E"/>
</g>
</g>
</g>
</g>
</g>
<defs>
<clipPath id="clip0_119_161">
<rect width="15.5152" height="15.5152" fill="white" transform="translate(0.475586 0.73938)"/>
</clipPath>
</defs>
</svg>
