<svg width="18" height="13" viewBox="0 0 18 13" fill="none" xmlns="http://www.w3.org/2000/svg">
<g id="Link - Glide on youtube &#226;&#134;&#146; SVG" clip-path="url(#clip0_55_953)">
<path id="Vector" d="M17.09 2.54636C16.9089 1.82212 16.3356 1.24875 15.6415 1.06769C14.3439 0.705566 9.21382 0.705566 9.21382 0.705566C9.21382 0.705566 4.05355 0.705566 2.75593 1.06769C2.06186 1.24875 1.4885 1.82212 1.30743 2.54636C0.945312 3.8138 0.945312 6.52973 0.945312 6.52973C0.945312 6.52973 0.945312 9.21547 1.30743 10.5131C1.4885 11.2373 2.06186 11.7805 2.75593 11.9616C4.05355 12.2935 9.21382 12.2935 9.21382 12.2935C9.21382 12.2935 14.3439 12.2935 15.6415 11.9616C16.3356 11.7805 16.9089 11.2373 17.09 10.5131C17.4522 9.21547 17.4522 6.52973 17.4522 6.52973C17.4522 6.52973 17.4522 3.8138 17.09 2.54636ZM7.52391 8.97406V4.08539L11.8091 6.52973L7.52391 8.97406Z" fill="white"/>
</g>
<defs>
<clipPath id="clip0_55_953">
<rect width="16.9957" height="11.588" fill="white" transform="translate(0.482422 0.931152)"/>
</clipPath>
</defs>
</svg>
