<svg width="81" height="81" viewBox="0 0 81 81" fill="none" xmlns="http://www.w3.org/2000/svg">
<g id="Group 2547">
<g id="Group 2546">
<circle id="Ellipse 171" cx="40.5" cy="40.5" r="40.5" fill="url(#paint0_linear_478_58)"/>
<path id="Vector" d="M53.2199 54.8805C49.925 54.8805 46.6697 54.1619 43.454 52.7249C40.2382 51.2878 37.3124 49.2518 34.6765 46.617C32.0407 43.9812 30.0047 41.0553 28.5687 37.8396C27.1327 34.6238 26.4141 31.3685 26.4131 28.0737C26.4131 27.5992 26.5712 27.2038 26.8875 26.8875C27.2038 26.5712 27.5992 26.4131 28.0737 26.4131H34.4788C34.8479 26.4131 35.1774 26.5386 35.4673 26.7895C35.7572 27.0404 35.9286 27.3367 35.9813 27.6783L37.0093 33.2136C37.062 33.6354 37.0488 33.9912 36.9697 34.2812C36.8907 34.5711 36.7457 34.8215 36.5348 35.0324L32.6996 38.9071C33.2268 39.8824 33.8526 40.8244 34.5769 41.7333C35.3012 42.6421 36.0989 43.5188 36.9697 44.3634C37.7869 45.1805 38.6435 45.9386 39.5397 46.6376C40.4359 47.3366 41.3848 47.9756 42.3865 48.5544L46.103 44.8378C46.3403 44.6006 46.6502 44.4224 47.033 44.3033C47.4157 44.1841 47.791 44.1514 48.159 44.2052L53.6153 45.3123C53.9843 45.4177 54.2874 45.6091 54.5246 45.8864C54.7619 46.1637 54.8805 46.4731 54.8805 46.8147V53.2199C54.8805 53.6943 54.7223 54.0897 54.406 54.406C54.0897 54.7223 53.6943 54.8805 53.2199 54.8805Z" fill="white"/>
</g>
</g>
<defs>
<linearGradient id="paint0_linear_478_58" x1="40.5" y1="0" x2="40.5" y2="81" gradientUnits="userSpaceOnUse">
<stop stop-color="#D9180A"/>
<stop offset="1" stop-color="#FC2F64"/>
</linearGradient>
</defs>
</svg>
