<svg width="45" height="45" viewBox="0 0 45 45" fill="none" xmlns="http://www.w3.org/2000/svg">
<g id="carousel-icon-05.svg" clip-path="url(#clip0_492_589)">
<g id="Group">
<path id="Vector" d="M22.0159 44.0277C34.1727 44.0277 44.0278 34.1726 44.0278 22.0157C44.0278 9.85887 34.1727 0.00378418 22.0159 0.00378418C9.85899 0.00378418 0.00390625 9.85887 0.00390625 22.0157C0.00390625 34.1726 9.85899 44.0277 22.0159 44.0277Z" fill="url(#paint0_linear_492_589)"/>
<path id="Vector_2" d="M22.0149 43.2401C33.7376 43.2401 43.2407 33.737 43.2407 22.0143C43.2407 10.2916 33.7376 0.788452 22.0149 0.788452C10.2922 0.788452 0.789062 10.2916 0.789062 22.0143C0.789062 33.737 10.2922 43.2401 22.0149 43.2401Z" fill="#1E293B"/>
<path id="Vector_3" opacity="0.079" d="M22.0149 43.2401C33.7376 43.2401 43.2407 33.737 43.2407 22.0143C43.2407 10.2916 33.7376 0.788452 22.0149 0.788452C10.2922 0.788452 0.789062 10.2916 0.789062 22.0143C0.789062 33.737 10.2922 43.2401 22.0149 43.2401Z" fill="url(#paint1_radial_492_589)"/>
<g id="Group 2558">
<path id="Vector_4" d="M28.0907 31.0001C28.0393 31 27.9885 30.9888 27.9419 30.9672C27.8952 30.9456 27.8539 30.914 27.8206 30.8748C27.7874 30.8356 27.7631 30.7896 27.7495 30.74C27.7358 30.6905 27.7331 30.6385 27.7415 30.5878L28.3811 26.7501H26.6741C26.609 26.75 26.5452 26.732 26.4897 26.698C26.4342 26.6641 26.3891 26.6155 26.3594 26.5576C26.3297 26.4997 26.3165 26.4348 26.3213 26.3699C26.326 26.305 26.3486 26.2427 26.3865 26.1898L29.9281 21.2314C29.9756 21.1663 30.0439 21.1192 30.1217 21.098C30.1995 21.0769 30.2822 21.0828 30.3561 21.1149C30.4301 21.1469 30.4909 21.2033 30.5286 21.2745C30.5663 21.3458 30.5786 21.4278 30.5635 21.507L29.9395 24.6251H31.6324C31.6958 24.6246 31.7582 24.6412 31.8129 24.6732C31.8676 24.7052 31.9128 24.7513 31.9435 24.8068C31.9742 24.8623 31.9895 24.925 31.9876 24.9883C31.9857 25.0517 31.9667 25.1134 31.9327 25.1669L28.3911 30.8336C28.3593 30.8846 28.315 30.9266 28.2625 30.9557C28.2099 30.9849 28.1508 31.0001 28.0907 31.0001ZM27.3626 26.0417H28.7991C28.8505 26.0417 28.9013 26.053 28.9479 26.0746C28.9945 26.0962 29.0359 26.1277 29.0691 26.167C29.1024 26.2062 29.1267 26.2522 29.1403 26.3018C29.154 26.3513 29.1567 26.4033 29.1483 26.454L28.7325 28.9508L30.9935 25.3334H29.5074C29.455 25.3335 29.4032 25.3219 29.3557 25.2995C29.3083 25.2771 29.2665 25.2445 29.2332 25.204C29.1999 25.1634 29.176 25.116 29.1633 25.0652C29.1506 25.0143 29.1493 24.9612 29.1596 24.9098L29.5442 22.986L27.3626 26.0417Z" fill="white"/>
<path id="Vector_5" d="M25.9655 31H16.7572C16.2877 30.9994 15.8376 30.8127 15.5056 30.4807C15.1736 30.1487 14.9869 29.6986 14.9863 29.2292V15.7708C14.9863 14.794 15.7811 14 16.7572 14H25.9655C26.9416 14 27.7363 14.794 27.7363 15.7708V21.7492C27.7363 21.8431 27.699 21.9332 27.6326 21.9996C27.5662 22.066 27.4761 22.1033 27.3822 22.1033C27.2882 22.1033 27.1981 22.066 27.1317 21.9996C27.0653 21.9332 27.028 21.8431 27.028 21.7492V15.7708C27.028 15.185 26.5513 14.7083 25.9655 14.7083H16.7572C16.1714 14.7083 15.6947 15.185 15.6947 15.7708V29.2292C15.6947 29.815 16.1714 30.2917 16.7572 30.2917H25.9655C26.0594 30.2917 26.1495 30.329 26.2159 30.3954C26.2823 30.4618 26.3197 30.5519 26.3197 30.6458C26.3197 30.7398 26.2823 30.8298 26.2159 30.8963C26.1495 30.9627 26.0594 31 25.9655 31Z" fill="white"/>
<path id="Vector_6" d="M27.3822 20.375H15.3405C15.2466 20.375 15.1565 20.3377 15.0901 20.2713C15.0236 20.2049 14.9863 20.1148 14.9863 20.0209C14.9863 19.9269 15.0236 19.8369 15.0901 19.7704C15.1565 19.704 15.2466 19.6667 15.3405 19.6667H27.3822C27.4761 19.6667 27.5662 19.704 27.6326 19.7704C27.699 19.8369 27.7363 19.9269 27.7363 20.0209C27.7363 20.1148 27.699 20.2049 27.6326 20.2713C27.5662 20.3377 27.4761 20.375 27.3822 20.375ZM24.1947 18.25C23.8044 18.25 23.4863 17.932 23.4863 17.5417C23.4863 17.1514 23.8044 16.8334 24.1947 16.8334C24.585 16.8334 24.903 17.1514 24.903 17.5417C24.903 17.932 24.585 18.25 24.1947 18.25ZM21.3613 18.25C20.971 18.25 20.653 17.932 20.653 17.5417C20.653 17.1514 20.971 16.8334 21.3613 16.8334C21.7516 16.8334 22.0697 17.1514 22.0697 17.5417C22.0697 17.932 21.7516 18.25 21.3613 18.25ZM18.528 18.25C18.1377 18.25 17.8197 17.932 17.8197 17.5417C17.8197 17.1514 18.1377 16.8334 18.528 16.8334C18.9183 16.8334 19.2363 17.1514 19.2363 17.5417C19.2363 17.932 18.9183 18.25 18.528 18.25ZM24.6763 26.0417H15.3405C15.2466 26.0417 15.1565 26.0044 15.0901 25.938C15.0236 25.8716 14.9863 25.7815 14.9863 25.6875C14.9863 25.5936 15.0236 25.5035 15.0901 25.4371C15.1565 25.3707 15.2466 25.3334 15.3405 25.3334H24.6763C24.7703 25.3334 24.8603 25.3707 24.9268 25.4371C24.9932 25.5035 25.0305 25.5936 25.0305 25.6875C25.0305 25.7815 24.9932 25.8716 24.9268 25.938C24.8603 26.0044 24.7703 26.0417 24.6763 26.0417Z" fill="white"/>
</g>
</g>
</g>
<defs>
<linearGradient id="paint0_linear_492_589" x1="2201.2" y1="4402.39" x2="2201.2" y2="0.00378418" gradientUnits="userSpaceOnUse">
<stop stop-color="#334155"/>
<stop offset="1" stop-color="#94A3B8" stop-opacity="0.601"/>
</linearGradient>
<radialGradient id="paint1_radial_492_589" cx="0" cy="0" r="1" gradientUnits="userSpaceOnUse" gradientTransform="translate(2070.05 2153.98) scale(1468.74)">
<stop stop-color="#F1F5F9"/>
<stop offset="1" stop-color="#F1F5F9" stop-opacity="0"/>
</radialGradient>
<clipPath id="clip0_492_589">
<rect width="44.0239" height="44.0239" fill="white"/>
</clipPath>
</defs>
</svg>
