<svg width="45" height="45" viewBox="0 0 45 45" fill="none" xmlns="http://www.w3.org/2000/svg">
<g id="carousel-icon-04.svg" clip-path="url(#clip0_492_507)">
<g id="Group">
<path id="Vector" d="M22.012 44.0296C34.1688 44.0296 44.0239 34.1746 44.0239 22.0177C44.0239 9.86082 34.1688 0.0057373 22.012 0.0057373C9.85509 0.0057373 0 9.86082 0 22.0177C0 34.1746 9.85509 44.0296 22.012 44.0296Z" fill="url(#paint0_linear_492_507)"/>
<path id="Vector_2" d="M22.011 43.242C33.7337 43.242 43.2368 33.7389 43.2368 22.0162C43.2368 10.2935 33.7337 0.790405 22.011 0.790405C10.2883 0.790405 0.785156 10.2935 0.785156 22.0162C0.785156 33.7389 10.2883 43.242 22.011 43.242Z" fill="#191919"/>
<path id="Vector_3" opacity="0.079" d="M22.011 43.242C33.7337 43.242 43.2368 33.7389 43.2368 22.0162C43.2368 10.2935 33.7337 0.790405 22.011 0.790405C10.2883 0.790405 0.785156 10.2935 0.785156 22.0162C0.785156 33.7389 10.2883 43.242 22.011 43.242Z" fill="url(#paint1_radial_492_507)"/>
<g id="Group 2557">
<path id="Vector_4" d="M23.1113 28C23.0119 28 22.9165 27.9605 22.8462 27.8902C22.7758 27.8198 22.7363 27.7245 22.7363 27.625C22.7363 26.1873 23.2598 24.8088 24.2116 23.7452C24.785 23.1004 25.2134 22.34 25.4678 21.5155C25.4969 21.4203 25.5625 21.3406 25.6504 21.2938C25.7382 21.247 25.841 21.2371 25.9362 21.2661C26.0314 21.2952 26.1111 21.3608 26.1579 21.4487C26.2047 21.5365 26.2146 21.6393 26.1856 21.7345C25.8992 22.6625 25.4171 23.5182 24.7718 24.244C23.9415 25.1742 23.4838 26.3781 23.4863 27.625C23.4863 27.7245 23.4468 27.8198 23.3765 27.8902C23.3062 27.9605 23.2108 28 23.1113 28ZM16.3613 28C16.2619 28 16.1665 27.9605 16.0962 27.8902C16.0258 27.8198 15.9863 27.7245 15.9863 27.625C15.9891 26.3787 15.5316 25.1752 14.7016 24.2455C13.599 23.0074 12.9888 21.4079 12.9863 19.75C12.9863 16.0285 16.0141 13 19.7363 13C20.4788 13 21.2011 13.1178 21.8821 13.3503C21.9304 13.3647 21.9753 13.3887 22.0141 13.421C22.0529 13.4532 22.0848 13.4929 22.1079 13.5377C22.131 13.5825 22.1449 13.6315 22.1486 13.6818C22.1523 13.7321 22.1459 13.7826 22.1296 13.8304C22.1134 13.8781 22.0877 13.9221 22.054 13.9596C22.0204 13.9972 21.9795 14.0276 21.9339 14.049C21.8882 14.0704 21.8387 14.0824 21.7883 14.0843C21.7379 14.0861 21.6877 14.0778 21.6406 14.0597C21.0272 13.8526 20.3838 13.7479 19.7363 13.75C16.4281 13.75 13.7363 16.4418 13.7363 19.75C13.7363 21.2185 14.2786 22.6375 15.2618 23.746C16.2143 24.8133 16.7394 26.1945 16.7363 27.625C16.7363 27.7245 16.6968 27.8198 16.6265 27.8902C16.5562 27.9605 16.4608 28 16.3613 28Z" fill="white"/>
<path id="Vector_5" d="M21.6113 31H17.8613C17.3642 30.9994 16.8877 30.8017 16.5362 30.4502C16.1847 30.0987 15.9869 29.6221 15.9863 29.125V27.625C15.9863 27.5255 16.0258 27.4302 16.0962 27.3598C16.1665 27.2895 16.2619 27.25 16.3613 27.25H23.1113C23.2108 27.25 23.3062 27.2895 23.3765 27.3598C23.4468 27.4302 23.4863 27.5255 23.4863 27.625V29.125C23.4863 30.1585 22.6456 31 21.6113 31ZM16.7363 28V29.125C16.7363 29.7453 17.2411 30.25 17.8613 30.25H21.6113C22.2316 30.25 22.7363 29.7453 22.7363 29.125V28H16.7363ZM28.4596 19.75H23.3723C22.1941 19.75 21.2363 18.7743 21.2363 17.575C21.2363 16.4732 22.0448 15.5605 23.0896 15.4187C23.4233 14.02 24.6728 13 26.1113 13C27.2446 13 28.2893 13.6337 28.8316 14.6312C30.0563 14.812 30.9863 15.8882 30.9863 17.1753C30.9863 18.595 29.8523 19.75 28.4596 19.75ZM26.1113 13.75C24.9421 13.75 23.9386 14.6425 23.7751 15.8268C23.7626 15.9163 23.7181 15.9984 23.6499 16.0578C23.5817 16.1172 23.4943 16.15 23.4038 16.15C22.6081 16.15 21.9863 16.789 21.9863 17.575C21.9863 18.361 22.6081 19 23.3723 19H28.4596C29.4398 19 30.2363 18.1817 30.2363 17.1753C30.2363 16.2085 29.5028 15.4105 28.5668 15.3572C28.4985 15.3535 28.4326 15.3311 28.3761 15.2925C28.3196 15.2539 28.2748 15.2005 28.2466 15.1383C28.0608 14.7268 27.7608 14.3774 27.3823 14.1313C27.0039 13.8852 26.5628 13.7529 26.1113 13.75Z" fill="white"/>
</g>
</g>
</g>
<defs>
<linearGradient id="paint0_linear_492_507" x1="2201.2" y1="4402.4" x2="2201.2" y2="0.0057373" gradientUnits="userSpaceOnUse">
<stop stop-color="#334155"/>
<stop offset="1" stop-color="#94A3B8" stop-opacity="0.601"/>
</linearGradient>
<radialGradient id="paint1_radial_492_507" cx="0" cy="0" r="1" gradientUnits="userSpaceOnUse" gradientTransform="translate(2070.05 2153.98) scale(1468.74)">
<stop stop-color="#F1F5F9"/>
<stop offset="1" stop-color="#F1F5F9" stop-opacity="0"/>
</radialGradient>
<clipPath id="clip0_492_507">
<rect width="44.0239" height="44.0239" fill="white"/>
</clipPath>
</defs>
</svg>
