<svg width="150" height="150" viewBox="0 0 150 150" fill="none" xmlns="http://www.w3.org/2000/svg">
<path fill-rule="evenodd" clip-rule="evenodd" d="M50 43.75C50 37.1196 52.6339 30.7607 57.3223 26.0723C62.0107 21.3839 68.3696 18.75 75 18.75C81.6304 18.75 87.9893 21.3839 92.6777 26.0723C97.3661 30.7607 100 37.1196 100 43.75C100 50.3804 97.3661 56.7393 92.6777 61.4277C87.9893 66.1161 81.6304 68.75 75 68.75C68.3696 68.75 62.0107 66.1161 57.3223 61.4277C52.6339 56.7393 50 50.3804 50 43.75ZM50 81.25C41.712 81.25 33.7634 84.5424 27.9029 90.4029C22.0424 96.2634 18.75 104.212 18.75 112.5C18.75 117.473 20.7254 122.242 24.2417 125.758C27.7581 129.275 32.5272 131.25 37.5 131.25H112.5C117.473 131.25 122.242 129.275 125.758 125.758C129.275 122.242 131.25 117.473 131.25 112.5C131.25 104.212 127.958 96.2634 122.097 90.4029C116.237 84.5424 108.288 81.25 100 81.25H50Z" fill="#D6D6D6"/>
</svg>
