<svg width="15" height="17" viewBox="0 0 15 17" fill="none" xmlns="http://www.w3.org/2000/svg">
<g id="SVG" clip-path="url(#clip0_574_1975)">
<path id="Vector" d="M12.0996 2.89128C11.2871 2.07878 9.97149 2.07878 9.15899 2.89128L3.16211 8.89128C1.79649 10.2538 1.79649 12.4663 3.16211 13.8288C4.52774 15.1913 6.73711 15.1913 8.10274 13.8288L12.8496 9.07878C13.1434 8.78503 13.6184 8.78503 13.909 9.07878C14.1996 9.37253 14.2027 9.84753 13.909 10.1382L9.16211 14.8913C7.21211 16.8413 4.05274 16.8413 2.10274 14.8913C0.152735 12.9413 0.14961 9.77878 2.09961 7.82878L8.09961 1.82878C9.49649 0.431909 11.7621 0.431909 13.1621 1.82878C14.5621 3.22566 14.559 5.49128 13.1621 6.88816L7.41836 12.6319C6.43086 13.6194 4.80586 13.5288 3.93399 12.4382C3.19024 11.5069 3.26211 10.1632 4.10586 9.31941L8.84961 4.57878C9.14336 4.28503 9.61836 4.28503 9.90899 4.57878C10.1996 4.87253 10.2027 5.34753 9.90899 5.63816L5.16836 10.3819C4.86524 10.685 4.83711 11.1663 5.10586 11.5007C5.41836 11.8913 6.00274 11.9257 6.35586 11.5694L12.0996 5.82878C12.9121 5.01628 12.9121 3.70066 12.0996 2.88816V2.89128Z" fill="white"/>
</g>
<defs>
<clipPath id="clip0_574_1975">
<rect width="14" height="16" fill="white" transform="translate(0.380859 0.609985)"/>
</clipPath>
</defs>
</svg>
