<svg width="113" height="117" viewBox="0 0 113 117" fill="none" xmlns="http://www.w3.org/2000/svg">
<g filter="url(#filter0_d_679_329)">
<circle cx="56.5" cy="54.5" r="40.5" fill="#E1B33D"/>
<g clip-path="url(#clip0_679_329)">
<path d="M68.9993 46.2667L66.5327 43.8C66.3207 43.5978 66.039 43.4851 65.746 43.4851C65.4531 43.4851 65.1714 43.5978 64.9593 43.8L62.766 46H50.9993C50.6457 46 50.3066 46.1405 50.0565 46.3905C49.8065 46.6406 49.666 46.9797 49.666 47.3333V62C49.666 62.3536 49.8065 62.6928 50.0565 62.9428C50.3066 63.1929 50.6457 63.3333 50.9993 63.3333H65.666C66.0196 63.3333 66.3588 63.1929 66.6088 62.9428C66.8589 62.6928 66.9993 62.3536 66.9993 62V49.84L68.9993 47.84C69.2078 47.6313 69.3249 47.3483 69.3249 47.0533C69.3249 46.7583 69.2078 46.4754 68.9993 46.2667ZM59.5527 55.42L56.7593 56.04L57.426 53.2733L63.7927 46.8933L65.946 49.0467L59.5527 55.42ZM66.666 48.2867L64.5127 46.1333L65.746 44.9L67.8993 47.0533L66.666 48.2867Z" fill="white"/>
</g>
</g>
<defs>
<filter id="filter0_d_679_329" x="-1.8" y="0.200001" width="116.6" height="116.6" filterUnits="userSpaceOnUse" color-interpolation-filters="sRGB">
<feFlood flood-opacity="0" result="BackgroundImageFix"/>
<feColorMatrix in="SourceAlpha" type="matrix" values="0 0 0 0 0 0 0 0 0 0 0 0 0 0 0 0 0 0 127 0" result="hardAlpha"/>
<feOffset dy="4"/>
<feGaussianBlur stdDeviation="8.9"/>
<feComposite in2="hardAlpha" operator="out"/>
<feColorMatrix type="matrix" values="0 0 0 0 0 0 0 0 0 0 0 0 0 0 0 0 0 0 0.15 0"/>
<feBlend mode="normal" in2="BackgroundImageFix" result="effect1_dropShadow_679_329"/>
<feBlend mode="normal" in="SourceGraphic" in2="effect1_dropShadow_679_329" result="shape"/>
</filter>
<clipPath id="clip0_679_329">
<rect width="24" height="24" fill="white" transform="translate(47 42)"/>
</clipPath>
</defs>
</svg>
