<svg width="113" height="117" viewBox="0 0 113 117" fill="none" xmlns="http://www.w3.org/2000/svg">
<g filter="url(#filter0_d_679_312)">
<circle cx="56.5" cy="54.5" r="40.5" fill="#0AA7D9"/>
<path d="M59 64.5C65.627 64.5 71 59.799 71 54C71 48.201 65.627 43.5 59 43.5C52.373 43.5 47 48.201 47 54C47 56.64 48.1145 59.055 49.955 60.9C49.8095 62.424 49.3295 64.095 48.7985 65.349C48.68 65.628 48.9095 65.94 49.208 65.892C52.592 65.337 54.6035 64.485 55.478 64.041C56.6269 64.3474 57.811 64.5017 59 64.5Z" fill="white"/>
<circle cx="56.5" cy="54.5" r="40.5" fill="#0AA7D9"/>
<path d="M63 58.08C62.24 58.08 61.56 58.38 61.04 58.85L53.91 54.7C53.96 54.47 54 54.24 54 54C54 53.76 53.96 53.53 53.91 53.3L60.96 49.19C61.5 49.69 62.21 50 63 50C64.66 50 66 48.66 66 47C66 45.34 64.66 44 63 44C61.34 44 60 45.34 60 47C60 47.24 60.04 47.47 60.09 47.7L53.04 51.81C52.5 51.31 51.79 51 51 51C49.34 51 48 52.34 48 54C48 55.66 49.34 57 51 57C51.79 57 52.5 56.69 53.04 56.19L60.16 60.35C60.11 60.56 60.08 60.78 60.08 61C60.08 62.61 61.39 63.92 63 63.92C64.61 63.92 65.92 62.61 65.92 61C65.92 59.39 64.61 58.08 63 58.08Z" fill="white"/>
</g>
<defs>
<filter id="filter0_d_679_312" x="-1.8" y="0.200001" width="116.6" height="116.6" filterUnits="userSpaceOnUse" color-interpolation-filters="sRGB">
<feFlood flood-opacity="0" result="BackgroundImageFix"/>
<feColorMatrix in="SourceAlpha" type="matrix" values="0 0 0 0 0 0 0 0 0 0 0 0 0 0 0 0 0 0 127 0" result="hardAlpha"/>
<feOffset dy="4"/>
<feGaussianBlur stdDeviation="8.9"/>
<feComposite in2="hardAlpha" operator="out"/>
<feColorMatrix type="matrix" values="0 0 0 0 0 0 0 0 0 0 0 0 0 0 0 0 0 0 0.15 0"/>
<feBlend mode="normal" in2="BackgroundImageFix" result="effect1_dropShadow_679_312"/>
<feBlend mode="normal" in="SourceGraphic" in2="effect1_dropShadow_679_312" result="shape"/>
</filter>
</defs>
</svg>
