<svg width="24" height="24" viewBox="0 0 24 24" fill="none" xmlns="http://www.w3.org/2000/svg">
<g id="solar:delivery-linear">
<g id="Group">
<path id="Vector" d="M7.50651 15.2644C7.53278 15.3594 7.57749 15.4482 7.63808 15.5259C7.69868 15.6035 7.77399 15.6685 7.8597 15.7171C7.9454 15.7656 8.03984 15.7969 8.13761 15.8089C8.23538 15.821 8.33457 15.8137 8.42951 15.7874C8.52446 15.7612 8.6133 15.7164 8.69097 15.6558C8.76864 15.5952 8.83361 15.5199 8.88217 15.4342C8.93074 15.3485 8.96194 15.2541 8.97401 15.1563C8.98608 15.0586 8.97878 14.9594 8.95251 14.8644L7.50651 15.2644ZM3.20051 4.72442C3.10519 4.69658 3.00529 4.68794 2.90661 4.69901C2.80793 4.71008 2.71243 4.74064 2.62565 4.78891C2.53887 4.83719 2.46254 4.90221 2.40109 4.98022C2.33964 5.05822 2.29429 5.14765 2.26767 5.24332C2.24106 5.33899 2.23371 5.43899 2.24605 5.53752C2.25838 5.63605 2.29017 5.73116 2.33955 5.81731C2.38893 5.90346 2.45493 5.97895 2.53372 6.03939C2.6125 6.09984 2.70251 6.14403 2.79851 6.16942L3.20051 4.72442ZM20.1885 15.7244C20.2862 15.7018 20.3783 15.6599 20.4595 15.6011C20.5407 15.5423 20.6092 15.4678 20.6611 15.3821C20.7131 15.2964 20.7472 15.2011 20.7617 15.1019C20.7762 15.0027 20.7706 14.9016 20.7453 14.8046C20.7201 14.7076 20.6756 14.6167 20.6146 14.5372C20.5536 14.4576 20.4772 14.3911 20.3901 14.3416C20.3029 14.2921 20.2068 14.2606 20.1072 14.2488C20.0077 14.2371 19.9068 14.2455 19.8105 14.2734L20.1885 15.7244ZM10.1975 17.5584C10.5075 18.6784 9.82751 19.8614 8.62351 20.1744L9.00051 21.6254C10.9775 21.1124 12.1855 19.1234 11.6435 17.1584L10.1975 17.5584ZM8.62351 20.1744C7.41151 20.4894 6.19551 19.7854 5.88351 18.6554L4.43751 19.0554C4.97751 21.0104 7.03151 22.1374 9.00051 21.6254L8.62351 20.1744ZM5.88351 18.6554C5.57351 17.5354 6.25351 16.3524 7.45751 16.0394L7.08051 14.5894C5.10351 15.1024 3.89451 17.0904 4.43751 19.0554L5.88351 18.6554ZM7.45751 16.0394C8.66951 15.7244 9.88551 16.4284 10.1975 17.5584L11.6435 17.1584C11.1035 15.2034 9.04951 14.0764 7.08051 14.5884L7.45751 16.0394ZM8.95251 14.8644L6.80051 7.07442L5.35451 7.47442L7.50651 15.2644L8.95251 14.8644ZM4.90451 5.19642L3.20051 4.72442L2.79851 6.16942L4.50351 6.64242L4.90451 5.19642ZM6.80051 7.07442C6.67364 6.62427 6.4323 6.21467 6.10002 5.88554C5.76774 5.55642 5.35585 5.319 4.90451 5.19642L4.50551 6.64242C4.93051 6.76042 5.24651 7.08342 5.35451 7.47442L6.80051 7.07442ZM11.1105 18.0844L20.1885 15.7244L19.8115 14.2734L10.7325 16.6334L11.1105 18.0844Z" fill="url(#paint0_linear_55_626)"/>
<path id="Vector_2" d="M12.5027 4.49173C11.5843 4.73072 10.9434 4.89841 10.477 5.08734C10.0226 5.27146 9.80744 5.44794 9.68082 5.66113L9.68038 5.66186C9.55479 5.8725 9.50575 6.13565 9.56771 6.6031C9.63172 7.086 9.80149 7.70512 10.0478 8.59658C10.0479 8.59659 10.0479 8.5966 10.0479 8.59662L10.5628 10.4596L10.5629 10.4596C10.8092 11.3511 10.9812 11.9696 11.1747 12.4193C11.3617 12.854 11.5415 13.063 11.7655 13.1887C11.9914 13.315 12.2735 13.3625 12.7616 13.3015C13.2633 13.2389 13.905 13.0733 14.8232 12.8349C14.8232 12.8349 14.8232 12.8349 14.8233 12.8349L16.7432 12.3359L16.7433 12.3358C17.6615 12.0974 18.3025 11.9297 18.769 11.7407C19.2234 11.5567 19.4392 11.3801 19.5663 11.167L12.5027 4.49173ZM12.5027 4.49173C12.5027 4.49172 12.5028 4.4917 12.5028 4.49169L14.4225 3.99379L14.4226 3.99375C15.341 3.75528 15.9827 3.58943 16.4845 3.52654C16.9727 3.46536 17.2548 3.51273 17.4805 3.639C17.7046 3.76476 17.8845 3.9739 18.0715 4.40848C18.2651 4.85814 18.4371 5.47692 18.6829 6.36866L18.683 6.36909L19.198 8.23098C19.198 8.23102 19.198 8.23105 19.198 8.23109C19.4444 9.12264 19.6144 9.74174 19.6787 10.2248C19.7408 10.6923 19.692 10.9557 19.5665 11.1667L12.5027 4.49173Z" stroke="#FA4841"/>
</g>
</g>
<defs>
<linearGradient id="paint0_linear_55_626" x1="11.5049" y1="4.69434" x2="11.5049" y2="21.7487" gradientUnits="userSpaceOnUse">
<stop stop-color="#FC2C68"/>
<stop offset="1" stop-color="#FA4B3F"/>
</linearGradient>
</defs>
</svg>
