<svg width="22" height="22" viewBox="0 0 22 22" fill="none" xmlns="http://www.w3.org/2000/svg">
<g id="system-uicons:video">
<path id="Vector" d="M5.64453 7.44385H11.6445C12.175 7.44385 12.6837 7.65456 13.0587 8.02963C13.4338 8.40471 13.6445 8.91341 13.6445 9.44385V13.4438C13.6445 13.9743 13.4338 14.483 13.0587 14.8581C12.6837 15.2331 12.175 15.4438 11.6445 15.4438H5.64453C5.1141 15.4438 4.60539 15.2331 4.23032 14.8581C3.85524 14.483 3.64453 13.9743 3.64453 13.4438V9.44385C3.64453 8.91341 3.85524 8.40471 4.23032 8.02963C4.60539 7.65456 5.1141 7.44385 5.64453 7.44385ZM13.6445 10.4438L16.0445 8.64385C16.1931 8.53242 16.3698 8.46457 16.5547 8.44789C16.7397 8.43121 16.9256 8.46637 17.0917 8.54942C17.2579 8.63247 17.3975 8.76014 17.4952 8.91812C17.5928 9.07609 17.6445 9.25814 17.6445 9.44385V13.4438C17.6445 13.6296 17.5928 13.8116 17.4952 13.9696C17.3975 14.1276 17.2579 14.2552 17.0917 14.3383C16.9256 14.4213 16.7397 14.4565 16.5547 14.4398C16.3698 14.4231 16.1931 14.3553 16.0445 14.2438L13.6445 12.4438V10.4438Z" stroke="white" stroke-linecap="round" stroke-linejoin="round"/>
</g>
</svg>
