<svg width="24" height="24" viewBox="0 0 24 24" fill="none" xmlns="http://www.w3.org/2000/svg">
<g id="tdesign:secured">
<path id="Vector" d="M12 0.44043L22 3.94043V12.0004C22 16.1274 19.466 19.0124 17.104 20.8034C15.6783 21.8744 14.1141 22.7474 12.454 23.3984C12.4251 23.4096 12.3961 23.4206 12.367 23.4314L12.342 23.4404L12.335 23.4424L12.332 23.4434C12.331 23.4434 12.33 23.4434 12 22.5004L11.669 23.4444L11.665 23.4424L11.658 23.4404L11.633 23.4304C11.4994 23.3811 11.3667 23.3294 11.235 23.2754C9.68949 22.6381 8.23117 21.8071 6.895 20.8024C4.535 19.0134 2 16.1284 2 12.0014V3.94043L12 0.44043ZM12 22.5004L11.669 23.4444L12 23.5604L12.331 23.4444L12 22.5004ZM12 21.4284L12.009 21.4244C13.3929 20.8529 14.6989 20.1087 15.896 19.2094C18.034 17.5904 20 15.2234 20 12.0004V5.36043L12 2.56043L4 5.36043V12.0004C4 15.2234 5.966 17.5884 8.104 19.2104C9.30376 20.1111 10.6129 20.857 12 21.4284ZM18.072 8.34343L11.001 15.4144L6.758 11.1724L8.173 9.75743L11 12.5864L16.657 6.92943L18.071 8.34343H18.072Z" fill="url(#paint0_linear_55_620)"/>
</g>
<defs>
<linearGradient id="paint0_linear_55_620" x1="12" y1="0.44043" x2="12" y2="23.5604" gradientUnits="userSpaceOnUse">
<stop stop-color="#FC2C68"/>
<stop offset="1" stop-color="#FA4B3F"/>
</linearGradient>
</defs>
</svg>
