<svg width="43" height="43" viewBox="0 0 43 43" fill="none" xmlns="http://www.w3.org/2000/svg">
<path d="M21.2258 42.4516C32.9485 42.4516 42.4516 32.9485 42.4516 21.2258C42.4516 9.50312 32.9485 0 21.2258 0C9.50312 0 0 9.50312 0 21.2258C0 32.9485 9.50312 42.4516 21.2258 42.4516Z" fill="#1E293B"/>
<path d="M19.2137 14.2159L18.5329 14.609L16.566 11.2026L17.2468 10.8096L19.2137 14.2159ZM10.666 14.609L11.3468 14.2159L13.3137 17.6231L12.6329 18.0161L10.666 14.609ZM29.0484 18.0161L28.3676 17.6231L30.3345 14.2159L31.0153 14.609L29.0484 18.0161ZM24.4337 10.8096L25.1153 11.2026L23.1484 14.609L22.4676 14.2159L24.4337 10.8096ZM22.4684 28.236L23.1492 27.8429L25.1161 31.2492L24.4353 31.6423L22.4684 28.236ZM31.0161 27.8429L30.3353 28.236L28.3683 24.8288L29.0491 24.4358L31.0161 27.8429ZM12.6337 24.4358L13.3145 24.8288L11.3476 28.236L10.6668 27.8429L12.6337 24.4358ZM17.2484 31.6423L16.5668 31.2492L18.5337 27.8429L19.2145 28.236L17.2476 31.6423H17.2484Z" fill="#475569"/>
<path d="M15.8438 17.6519H21.8438C22.3742 17.6519 22.8829 17.8626 23.258 18.2376C23.633 18.6127 23.8438 19.1214 23.8438 19.6519V23.6519C23.8438 24.1823 23.633 24.691 23.258 25.0661C22.8829 25.4411 22.3742 25.6519 21.8438 25.6519H15.8438C15.3133 25.6519 14.8046 25.4411 14.4295 25.0661C14.0545 24.691 13.8438 24.1823 13.8438 23.6519V19.6519C13.8438 19.1214 14.0545 18.6127 14.4295 18.2376C14.8046 17.8626 15.3133 17.6519 15.8438 17.6519ZM23.8438 20.6519L26.2437 18.8519C26.3923 18.7404 26.569 18.6726 26.7539 18.6559C26.9389 18.6392 27.1249 18.6744 27.291 18.7574C27.4571 18.8405 27.5968 18.9681 27.6944 19.1261C27.792 19.2841 27.8438 19.4661 27.8438 19.6519V23.6519C27.8438 23.8376 27.792 24.0196 27.6944 24.1776C27.5968 24.3356 27.4571 24.4632 27.291 24.5463C27.1249 24.6293 26.9389 24.6645 26.7539 24.6478C26.569 24.6311 26.3923 24.5633 26.2437 24.4519L23.8438 22.6519V20.6519Z" stroke="white" stroke-linecap="round" stroke-linejoin="round"/>
</svg>
