<svg width="113" height="117" viewBox="0 0 113 117" fill="none" xmlns="http://www.w3.org/2000/svg">
<g filter="url(#filter0_d_679_321)">
<circle cx="56.5" cy="54.5" r="40.5" fill="#60DF4B"/>
<g clip-path="url(#clip0_679_321)">
<path d="M47.5126 53.949C47.512 55.9812 48.043 57.9655 49.0527 59.7145L47.416 65.6904L53.5315 64.0869C55.223 65.0077 57.1181 65.4902 59.044 65.4903H59.0491C65.4067 65.4903 70.582 60.3169 70.5847 53.9581C70.586 50.8768 69.3871 47.9794 67.2089 45.7995C65.0311 43.6198 62.1347 42.4188 59.0486 42.4174C52.6902 42.4174 47.5153 47.5905 47.5127 53.949" fill="#60DF4B"/>
<path d="M47.1003 53.9452C47.0997 56.0506 47.6497 58.1059 48.6954 59.9175L47 66.1075L53.3348 64.4466C55.0802 65.3982 57.0454 65.9 59.0451 65.9007H59.0502C65.636 65.9007 70.9972 60.5412 71 53.9548C71.0011 50.7628 69.7591 47.7612 67.5031 45.5033C65.2468 43.2456 62.2468 42.0013 59.0502 42C52.4634 42 47.1029 47.3588 47.1003 53.9452ZM50.8728 59.6055L50.6363 59.23C49.642 57.649 49.1172 55.822 49.1179 53.946C49.1201 48.4715 53.5754 44.0175 59.054 44.0175C61.7071 44.0186 64.2005 45.0529 66.0759 46.9294C67.9512 48.8061 68.9831 51.3007 68.9824 53.9541C68.98 59.4286 64.5245 63.8831 59.0502 63.8831H59.0463C57.2638 63.8822 55.5157 63.4035 53.9911 62.4989L53.6283 62.2838L49.8691 63.2693L50.8728 59.6054V59.6055Z" fill="url(#paint0_linear_679_321)"/>
<path d="M56.0638 48.9514C55.8401 48.4542 55.6047 48.4442 55.392 48.4355C55.2178 48.428 55.0187 48.4285 54.8198 48.4285C54.6206 48.4285 54.2971 48.5034 54.0236 48.802C53.7499 49.1009 52.9785 49.8232 52.9785 51.2921C52.9785 52.7612 54.0485 54.1809 54.1976 54.3803C54.347 54.5793 56.2632 57.6903 59.2981 58.8871C61.8204 59.8817 62.3336 59.6839 62.881 59.634C63.4285 59.5843 64.6477 58.9119 64.8964 58.2147C65.1453 57.5176 65.1453 56.92 65.0707 56.7952C64.996 56.6708 64.7969 56.596 64.4983 56.4468C64.1996 56.2974 62.7317 55.5751 62.458 55.4754C62.1843 55.3759 61.9853 55.3262 61.7861 55.6252C61.587 55.9237 61.0152 56.596 60.841 56.7952C60.6669 56.9948 60.4926 57.0196 60.1941 56.8703C59.8953 56.7204 58.9337 56.4055 57.7929 55.3884C56.9052 54.597 56.306 53.6197 56.1318 53.3207C55.9576 53.0222 56.1131 52.8604 56.2629 52.7116C56.397 52.5778 56.5615 52.3629 56.711 52.1887C56.8599 52.0143 56.9095 51.8899 57.0091 51.6908C57.1088 51.4914 57.0589 51.3171 56.9844 51.1677C56.9095 51.0184 56.3293 49.5417 56.0638 48.9514Z" fill="white"/>
</g>
</g>
<defs>
<filter id="filter0_d_679_321" x="-1.8" y="0.200001" width="116.6" height="116.6" filterUnits="userSpaceOnUse" color-interpolation-filters="sRGB">
<feFlood flood-opacity="0" result="BackgroundImageFix"/>
<feColorMatrix in="SourceAlpha" type="matrix" values="0 0 0 0 0 0 0 0 0 0 0 0 0 0 0 0 0 0 127 0" result="hardAlpha"/>
<feOffset dy="4"/>
<feGaussianBlur stdDeviation="8.9"/>
<feComposite in2="hardAlpha" operator="out"/>
<feColorMatrix type="matrix" values="0 0 0 0 0 0 0 0 0 0 0 0 0 0 0 0 0 0 0.15 0"/>
<feBlend mode="normal" in2="BackgroundImageFix" result="effect1_dropShadow_679_321"/>
<feBlend mode="normal" in="SourceGraphic" in2="effect1_dropShadow_679_321" result="shape"/>
</filter>
<linearGradient id="paint0_linear_679_321" x1="1247" y1="2452.75" x2="1247" y2="42" gradientUnits="userSpaceOnUse">
<stop stop-color="#F9F9F9"/>
<stop offset="1" stop-color="white"/>
</linearGradient>
<clipPath id="clip0_679_321">
<rect width="24" height="24.1875" fill="white" transform="translate(47 42)"/>
</clipPath>
</defs>
</svg>
